<?xml version="1.0" encoding="UTF-8" standalone="no"?>
<svg width="894px" height="498px" viewBox="0 0 894 498" version="1.1" xmlns="http://www.w3.org/2000/svg" xmlns:xlink="http://www.w3.org/1999/xlink" xmlns:sketch="http://www.bohemiancoding.com/sketch/ns">
    <!-- Generator: Sketch 3.3.2 (12043) - http://www.bohemiancoding.com/sketch -->
    <title>Group</title>
    <desc>Created with Sketch.</desc>
    <defs></defs>
    <g id="SteamFab" stroke="none" stroke-width="1" fill="none" fill-rule="evenodd" sketch:type="MSPage">
        <g id="Sectors" sketch:type="MSArtboardGroup" transform="translate(-87.000000, -770.000000)">
            <g sketch:type="MSLayerGroup" transform="translate(0.000000, 540.000000)" id="Group">
                <g transform="translate(22.000000, 232.000000)">
                    <circle id="Oval-32-Copy-5" stroke="#FFFFFF" stroke-width="3" sketch:type="MSShapeGroup" cx="531.5" cy="269.5" r="201.5"></circle>
                    <g id="Oval-32-Copy-3-+-Light-+-Machine" transform="translate(587.000000, 344.000000)">
                        <circle id="Oval-32-Copy-3" stroke="#FFFFFF" stroke-width="3" fill="#57A8D9" sketch:type="MSShapeGroup" cx="75" cy="75" r="75"></circle>
                        <g id="Light" transform="translate(45.859778, 36.000000)" fill="#000000" sketch:type="MSShapeGroup">
                            <path d="M27.8608954,0 C15.6362168,0 4.69086504,8.0696 1.42147425,19.6784982 C0.568589702,22.226793 0.142147425,24.9166596 0.142147425,27.8896702 C0.142147425,39.4985684 5.40160217,44.0288702 9.52387751,47.5681684 C9.95031978,47.8513123 10.2346146,48.2760281 10.6610569,48.5591719 C14.0725951,51.3906105 16.0626591,53.7973333 17.1998385,58.8939228 L17.1998385,75.1746947 C17.1998385,77.5814175 19.047755,79.4218526 21.4642612,79.4218526 L34.9682667,79.4218526 C37.2426255,79.4218526 38.6640997,77.7229895 38.6640997,75.1746947 L38.6640997,59.7433544 C40.2277214,54.7883368 42.3599328,52.0984702 44.9185864,49.8333193 C47.1929453,48.2760281 49.1830092,46.435593 50.8887783,44.453586 C53.3052846,41.9052912 54.7267588,39.2154246 55.5796434,35.9592702 C56.5746753,33.1278316 57.0011176,30.296393 57.0011176,27.3233825 C56.8589702,12.4583298 43.4971122,0 27.8608954,0 L27.8608954,0 Z M35.5368564,75.0331228 C35.5368564,76.4488421 34.9682667,76.4488421 34.8261192,76.4488421 L21.3221138,76.4488421 C20.4692293,76.4488421 20.042787,75.5994105 20.042787,75.0331228 L20.042787,73.6174035 L35.6790038,73.6174035 L35.6790038,70.7859649 L20.042787,70.7859649 L20.042787,67.9545263 L35.6790038,67.9545263 L35.5368564,75.0331228 L35.5368564,75.0331228 Z M52.5945474,34.9682667 C51.8838103,37.7997053 50.462336,40.2064281 48.4722721,42.4715789 C46.9086504,44.453586 45.0607339,46.0108772 42.9285225,47.4265965 L42.7863751,47.5681684 C39.6591317,50.2580351 37.2426255,53.5141895 35.5368564,59.0354947 L35.5368564,65.1230877 L19.9006396,65.1230877 L19.9006396,58.7523509 L19.9006396,58.469207 C18.6213127,52.523186 16.0626591,49.2670316 12.366826,46.1524491 C11.9403837,45.8693053 11.6560889,45.5861614 11.2296466,45.3030175 C7.2495187,41.9052912 2.70080108,38.2244211 2.70080108,27.7480982 C2.70080108,25.0582316 3.12724336,22.6515088 3.83798049,20.3863579 C6.82307642,10.051607 16.6312488,2.68986667 27.5766005,2.68986667 C41.5070482,2.68986667 53.7317268,14.0156211 53.7317268,27.0402386 C54.0160217,29.7301053 53.5895794,32.4199719 52.5945474,34.9682667 L52.5945474,34.9682667 Z M28.4294851,26.6155228 C24.4493572,26.6155228 21.1799664,29.8716772 21.1799664,33.8356912 C21.1799664,37.3749895 23.7386201,40.2064281 27.0080108,40.9142877 L27.0080108,56.7703439 L29.8509593,56.7703439 L29.8509593,40.9142877 C33.2624976,40.2064281 35.8211512,37.3749895 35.8211512,33.8356912 C35.8211512,29.7301053 32.5517604,26.6155228 28.4294851,26.6155228 L28.4294851,26.6155228 Z M29.8509593,38.0828491 L29.8509593,33.9772632 L27.0080108,33.9772632 L27.0080108,38.0828491 C25.1600943,37.5165614 23.7386201,35.8176982 23.7386201,33.6941193 C23.7386201,31.1458246 25.8708314,29.0222456 28.4294851,29.0222456 C30.9881388,29.0222456 33.1203501,31.1458246 33.1203501,33.6941193 C33.1203501,35.8176982 31.8410233,37.5165614 29.8509593,38.0828491 L29.8509593,38.0828491 Z" id="Shape"></path>
                        </g>
                        <text id="Machine" sketch:type="MSTextLayer" font-family="Exo" font-size="24" font-weight="420" fill="#113958">
                            <tspan x="175.26" y="68.152">Machine</tspan>
                            <tspan x="175.26" y="101.152">Learning</tspan>
                        </text>
                    </g>
                    <g id="Oval-32-+-Disrupt-IT-with-Micr-+-Shape" transform="translate(0.000000, 119.000000)">
                        <circle id="Oval-32" stroke="#FFFFFF" stroke-width="3" fill="#57A8D9" sketch:type="MSShapeGroup" cx="331" cy="75" r="75"></circle>
                        <text id="Disrupt-IT-with-Micr" sketch:type="MSTextLayer" font-family="Exo" font-size="24" font-weight="420" sketch:alignment="right" fill="#113958">
                            <tspan x="65" y="63.004705">Disrupt IT with </tspan>
                            <tspan x="64.424" y="96.004705">Micro Services</tspan>
                        </text>
                        <path d="M364.399814,67.0686456 L364.399814,65.3061224 L364.399814,65.1298701 C364.399814,47.6808905 350.299629,33.580705 332.850649,33.580705 L332.674397,33.580705 C317.69295,33.580705 305.002783,43.9795918 301.830241,58.2560297 C291.607607,58.961039 283.5,67.5974026 283.5,78.1725417 L283.5,78.877551 C283.5,89.8051948 292.488868,98.7940631 303.416512,98.7940631 L316.987941,98.7940631 L316.987941,95.2690167 L303.416512,95.2690167 C294.427644,95.2690167 287.025046,87.8664193 287.025046,78.877551 L287.025046,78.1725417 C287.025046,69.1836735 294.427644,61.7810761 303.416512,61.7810761 L304.826531,61.7810761 L305.002783,60.3710575 C307.294063,46.9758813 318.926716,37.1057514 332.674397,37.1057514 L332.850649,37.1057514 C348.360853,37.1057514 360.874768,49.619666 360.874768,65.1298701 L360.874768,65.3061224 C360.874768,66.3636364 360.874768,67.4211503 360.698516,68.4786642 L360.522263,70.4174397 L363.166048,70.4174397 C369.687384,70.4174397 375.151206,75.7050093 375.151206,82.4025974 L375.151206,83.283859 C375.151206,89.8051948 369.863636,95.2690167 363.166048,95.2690167 L348.537106,95.2690167 L348.537106,98.7940631 L362.989796,98.7940631 C371.449907,98.7940631 378.5,91.9202226 378.5,83.283859 L378.5,82.4025974 C378.5,74.471243 372.331169,67.7736549 364.399814,67.0686456 L364.399814,67.0686456 Z M334.260668,76.2337662 C334.084416,76.0575139 333.731911,75.8812616 333.555659,75.8812616 C332.850649,75.528757 331.969388,75.528757 331.440631,76.0575139 L320.865492,86.4564007 C320.160482,87.16141 320.160482,88.2189239 320.865492,88.9239332 C321.217996,89.2764378 321.746753,89.4526902 322.099258,89.4526902 C322.628015,89.4526902 322.980519,89.2764378 323.333024,88.9239332 L330.911874,81.5213358 L330.911874,114.656772 C330.911874,115.714286 331.616883,116.419295 332.674397,116.419295 C333.731911,116.419295 334.43692,115.714286 334.43692,114.656772 L334.43692,81.5213358 L342.01577,89.2764378 C342.368275,89.6289425 342.897032,89.8051948 343.249536,89.8051948 C343.778293,89.8051948 344.130798,89.6289425 344.483302,89.2764378 C345.188312,88.5714286 345.188312,87.5139147 344.483302,86.8089054 L334.260668,76.2337662 L334.260668,76.2337662 Z" id="Shape" fill="#000000" sketch:type="MSShapeGroup"></path>
                    </g>
                    <g id="Oval-32-Copy-+-Reduce-the-cost-of-e-+-Graduater" transform="translate(454.000000, 0.000000)">
                        <g id="Oval-32-Copy-+-Graduater" sketch:type="MSShapeGroup">
                            <circle id="Oval-32-Copy" stroke="#FFFFFF" stroke-width="3" fill="#57A8D9" cx="75" cy="75" r="75"></circle>
                            <g id="Graduater" transform="translate(28.000000, 40.000000)" fill="#000000">
                                <path d="M95,24.1666667 L47.5,0 L0,24.1666667 L23.3333333,38 L23.3333333,61.5 C23.3333333,66.3333333 26.5,70 30.8333333,70 L64,70 C68.3333333,70 71.5,66.5 71.5,61.5 L71.5,38 L81.5,32 L81.5,48 L84.8333333,48 L84.8333333,30.1666667 L95,24.1666667 L95,24.1666667 Z M47.5,3.83333333 L88,24.5 L47.5,48.6666667 L7,24.5 L47.5,3.83333333 L47.5,3.83333333 Z M68.3333333,61.5 C68.3333333,64 67,66.5 64.1666667,66.5 L31,66.5 C28,66.5 26.8333333,64 26.8333333,61.5 L26.8333333,40 L47.6666667,52.3333333 L68.5,40 L68.5,61.5 L68.3333333,61.5 Z" id="Shape"></path>
                            </g>
                        </g>
                        <text id="Reduce-the-cost-of-e" sketch:type="MSTextLayer" font-family="Exo" font-size="24" font-weight="420" fill="#113958">
                            <tspan x="178" y="32">Reduce the cost of </tspan>
                            <tspan x="178" y="65">education</tspan>
                        </text>
                    </g>
                    <g id="Oval-32-Copy-2-+-MarTech-and-analytic-+-Equalizer" transform="translate(654.000000, 147.000000)">
                        <circle id="Oval-32-Copy-2" stroke="#FFFFFF" stroke-width="3" fill="#57A8D9" sketch:type="MSShapeGroup" cx="75" cy="75" r="75"></circle>
                        <text id="MarTech-and-analytic" sketch:type="MSTextLayer" font-family="Exo" font-size="24" font-weight="420" fill="#113958">
                            <tspan x="172.07767" y="62.851295">MarTech and </tspan>
                            <tspan x="172.07767" y="95.851295">analytics</tspan>
                        </text>
                        <g id="Equalizer" transform="translate(45.740000, 36.504705)" fill="#000000" sketch:type="MSShapeGroup">
                            <path d="M7.315,16.4365385 L7.315,1.48076923 C7.315,0.592307692 6.7298,0 5.852,0 C4.9742,0 4.389,0.592307692 4.389,1.48076923 L4.389,16.4365385 C1.9019,17.0288462 0,19.25 0,22.0634615 L0,22.3596154 C0,25.025 1.9019,27.3942308 4.389,27.9865385 L4.389,75.5192308 C4.389,76.4076923 4.9742,77 5.852,77 C6.7298,77 7.315,76.4076923 7.315,75.5192308 L7.315,27.9865385 C9.8021,27.3942308 11.704,25.1730769 11.704,22.3596154 L11.704,22.0634615 C11.704,19.25 9.8021,17.0288462 7.315,16.4365385 L7.315,16.4365385 Z M8.778,22.3596154 C8.778,23.8403846 7.6076,25.1730769 5.9983,25.1730769 L5.7057,25.1730769 C4.2427,25.1730769 2.926,23.9884615 2.926,22.3596154 L2.926,22.0634615 C2.926,20.5826923 4.0964,19.25 5.7057,19.25 L5.9983,19.25 C7.4613,19.25 8.778,20.4346154 8.778,22.0634615 L8.778,22.3596154 L8.778,22.3596154 Z M30.723,31.2442308 L30.723,1.48076923 C30.723,0.592307692 30.1378,0 29.26,0 C28.3822,0 27.797,0.592307692 27.797,1.48076923 L27.797,31.2442308 C25.3099,31.8365385 23.408,34.0576923 23.408,36.8711538 L23.408,37.1673077 C23.408,39.8326923 25.3099,42.2019231 27.797,42.7942308 L27.797,75.5192308 C27.797,76.4076923 28.3822,77 29.26,77 C30.1378,77 30.723,76.4076923 30.723,75.5192308 L30.723,42.7942308 C33.2101,42.2019231 35.112,39.9807692 35.112,37.1673077 L35.112,36.8711538 C35.112,34.0576923 33.2101,31.8365385 30.723,31.2442308 L30.723,31.2442308 Z M32.186,37.1673077 C32.186,38.6480769 31.0156,39.9807692 29.4063,39.9807692 L29.1137,39.9807692 C27.6507,39.9807692 26.334,38.7961538 26.334,37.1673077 L26.334,36.8711538 C26.334,35.3903846 27.5044,34.0576923 29.1137,34.0576923 L29.4063,34.0576923 C30.8693,34.0576923 32.186,35.2423077 32.186,36.8711538 L32.186,37.1673077 L32.186,37.1673077 Z M54.131,46.0519231 L54.131,1.48076923 C54.131,0.592307692 53.5458,0 52.668,0 C51.7902,0 51.205,0.592307692 51.205,1.48076923 L51.205,46.0519231 C48.7179,46.6442308 46.816,48.8653846 46.816,51.6788462 L46.816,51.975 C46.816,54.6403846 48.7179,57.0096154 51.205,57.6019231 L51.205,75.5192308 C51.205,76.4076923 51.7902,77 52.668,77 C53.5458,77 54.131,76.4076923 54.131,75.5192308 L54.131,57.6019231 C56.6181,57.0096154 58.52,54.7884615 58.52,51.975 L58.52,51.6788462 C58.52,48.8653846 56.6181,46.6442308 54.131,46.0519231 L54.131,46.0519231 Z M55.594,51.975 C55.594,53.4557692 54.4236,54.7884615 52.8143,54.7884615 L52.5217,54.7884615 C51.0587,54.7884615 49.742,53.6038462 49.742,51.975 L49.742,51.6788462 C49.742,50.1980769 50.9124,48.8653846 52.5217,48.8653846 L52.8143,48.8653846 C54.2773,48.8653846 55.594,50.05 55.594,51.6788462 L55.594,51.975 L55.594,51.975 Z" id="Shape"></path>
                        </g>
                    </g>
                    <g id="Oval-32-Copy-4-+--B2B-SAAS-+-B2B" transform="translate(185.000000, 344.000000)">
                        <circle id="Oval-32-Copy-4" stroke="#FFFFFF" stroke-width="3" fill="#57A8D9" sketch:type="MSShapeGroup" cx="229" cy="75" r="75"></circle>
                        <text id="-B2B-SAAS" sketch:type="MSTextLayer" font-family="Exo" font-size="24" font-weight="420" sketch:alignment="right" fill="#113958">
                            <tspan x="7.67476939" y="84.72"> B2B SAAS</tspan>
                        </text>
                        <g id="B2B" transform="translate(187.481067, 38.848000)" fill="#000000" sketch:type="MSShapeGroup">
                            <path d="M75.3491753,0 L7.68869136,0 C3.3830242,0 0,3.38139774 0,7.68499487 L0,56.8689621 C0,61.1725592 3.3830242,64.5539569 7.68869136,64.5539569 L75.3491753,64.5539569 C79.6548425,64.5539569 83.0378667,61.1725592 83.0378667,56.8689621 L83.0378667,7.68499487 C83.0378667,3.38139774 79.6548425,0 75.3491753,0 L75.3491753,0 Z M79.9623901,56.8689621 C79.9623901,59.4818603 77.9633304,61.479959 75.3491753,61.479959 L7.68869136,61.479959 C5.0745363,61.479959 3.07547654,59.4818603 3.07547654,56.8689621 L3.07547654,7.68499487 C3.07547654,5.07209662 5.0745363,3.07399795 7.68869136,3.07399795 L75.3491753,3.07399795 C77.9633304,3.07399795 79.9623901,5.07209662 79.9623901,7.68499487 L79.9623901,56.8689621 L79.9623901,56.8689621 Z M55.3585778,73.7360287 L47.6698864,73.7360287 L47.6698864,66.0510338 C47.6698864,65.1288345 47.0547911,64.5140349 46.1321481,64.5140349 C45.2095052,64.5140349 44.5944099,65.1288345 44.5944099,66.0510338 L44.5944099,73.7360287 L38.4434568,73.7360287 L38.4434568,66.0510338 C38.4434568,65.1288345 37.8283615,64.5140349 36.9057185,64.5140349 C35.9830756,64.5140349 35.3679802,65.1288345 35.3679802,66.0510338 L35.3679802,73.7360287 L29.2170272,73.7360287 C28.2943842,73.7360287 27.6792889,74.3508283 27.6792889,75.2730277 C27.6792889,76.1952271 28.2943842,76.8100267 29.2170272,76.8100267 L55.3585778,76.8100267 C56.2812207,76.8100267 56.896316,76.1952271 56.896316,75.2730277 C56.896316,74.3508283 56.2812207,73.7360287 55.3585778,73.7360287 L55.3585778,73.7360287 Z" id="Shape"></path>
                            <path d="M55.9467627,14.5316267 L55.9467627,16.6075733 L62.901184,16.6075733 L47.5391787,31.761984 L35.0834987,20.551872 L14.5316267,32.384768 L15.5696,34.1493227 L34.7721067,23.1468053 L47.5391787,34.6683093 L64.2505493,18.060736 L64.2505493,24.91136 L66.326496,24.91136 L66.326496,14.5316267 L55.9467627,14.5316267 L55.9467627,14.5316267 Z" id="Path"></path>
                            <path d="M22.8354133,36.9518507 L22.8354133,50.8606933 L60.2024533,50.8606933 L60.2024533,32.1771733 L47.5391787,42.2455147 L34.0455253,30.9316053 L22.8354133,36.9518507 Z M24.91136,48.7847467 L24.91136,38.0936213 L33.8379307,33.4227413 L47.5391787,44.9442453 L58.1265067,36.5366613 L58.1265067,48.7847467 L24.91136,48.7847467 Z" id="Path"></path>
                        </g>
                    </g>
                </g>
            </g>
        </g>
    </g>
</svg>