<?xml version="1.0" encoding="UTF-8" standalone="no"?>
<svg width="100px" height="100px" viewBox="0 0 100 100" version="1.1" xmlns="http://www.w3.org/2000/svg" xmlns:xlink="http://www.w3.org/1999/xlink" xmlns:sketch="http://www.bohemiancoding.com/sketch/ns">
    <!-- Generator: Sketch 3.3.2 (12043) - http://www.bohemiancoding.com/sketch -->
    <title>icon_metrics</title>
    <desc>Created with Sketch.</desc>
    <defs></defs>
    <g id="Page-1" stroke="none" stroke-width="1" fill="none" fill-rule="evenodd" sketch:type="MSPage">
        <g id="icon_metrics" sketch:type="MSArtboardGroup">
            <rect id="Rectangle-89-Copy-5" fill="#FFFFFF" sketch:type="MSShapeGroup" x="0" y="0" width="100" height="100"></rect>
            <path d="M46.049,72.067 C46.049,74.146 47.735,75.832 49.814,75.832 C51.893,75.832 53.578,74.146 53.578,72.067 C53.578,69.988 51.893,68.302 49.814,68.302 C47.735,68.302 46.049,69.988 46.049,72.067 M46.049,60.304 C46.049,62.383 47.735,64.068 49.814,64.068 C51.893,64.068 53.578,62.383 53.578,60.304 C53.578,58.224 51.893,56.539 49.814,56.539 C47.735,56.539 46.049,58.224 46.049,60.304 M46.049,48.54 C46.049,50.619 47.735,52.305 49.814,52.305 C51.893,52.305 53.578,50.619 53.578,48.54 C53.578,46.461 51.893,44.776 49.814,44.776 C47.735,44.776 46.049,46.461 46.049,48.54 M32.716,72.067 C32.716,74.146 34.401,75.832 36.48,75.832 C38.56,75.832 40.245,74.146 40.245,72.067 C40.245,69.988 38.56,68.302 36.48,68.302 C34.401,68.302 32.716,69.988 32.716,72.067 M32.716,60.304 C32.716,62.383 34.401,64.068 36.48,64.068 C38.56,64.068 40.245,62.383 40.245,60.304 C40.245,58.224 38.56,56.539 36.48,56.539 C34.401,56.539 32.716,58.224 32.716,60.304 M32.716,48.54 C32.716,50.619 34.401,52.305 36.48,52.305 C38.56,52.305 40.245,50.619 40.245,48.54 C40.245,46.461 38.56,44.776 36.48,44.776 C34.401,44.776 32.716,46.461 32.716,48.54 M66.912,34.236 L66.912,23.311 C66.912,22.083 65.916,21.088 64.688,21.088 L34.939,21.088 C33.711,21.088 32.716,22.083 32.716,23.311 L32.716,34.236 C32.716,35.464 33.711,36.459 34.939,36.459 L64.688,36.459 C65.916,36.459 66.912,35.464 66.912,34.236 M66.912,48.54 C66.912,46.461 65.226,44.776 63.147,44.776 C61.068,44.776 59.382,46.461 59.382,48.54 C59.382,50.619 61.068,52.305 63.147,52.305 C65.226,52.305 66.912,50.619 66.912,48.54 M66.912,60.304 C66.912,58.224 65.226,56.539 63.147,56.539 C61.068,56.539 59.382,58.224 59.382,60.304 C59.382,62.383 61.068,64.068 63.147,64.068 C65.226,64.068 66.912,62.383 66.912,60.304 M66.912,72.067 C66.912,69.988 65.226,68.302 63.147,68.302 C61.068,68.302 59.382,69.988 59.382,72.067 C59.382,74.146 61.068,75.832 63.147,75.832 C65.226,75.832 66.912,74.146 66.912,72.067 M73.5,79.7 C73.5,82.156 71.509,84.147 69.053,84.147 L29.947,84.147 C27.491,84.147 25.5,82.156 25.5,79.7 L25.5,18.947 C25.5,16.491 27.491,14.5 29.947,14.5 L69.053,14.5 C71.509,14.5 73.5,16.491 73.5,18.947 L73.5,79.7" id="Imported-Layers" fill="#0079BA" sketch:type="MSShapeGroup"></path>
        </g>
    </g>
</svg>