<?xml version="1.0" encoding="UTF-8" standalone="no"?>
<svg width="84px" height="84px" viewBox="0 0 84 84" version="1.1" xmlns="http://www.w3.org/2000/svg" xmlns:xlink="http://www.w3.org/1999/xlink" xmlns:sketch="http://www.bohemiancoding.com/sketch/ns">
    <!-- Generator: Sketch 3.3.2 (12043) - http://www.bohemiancoding.com/sketch -->
    <title>Fill-1</title>
    <desc>Created with Sketch.</desc>
    <defs></defs>
    <g id="Page-1" stroke="none" stroke-width="1" fill="none" fill-rule="evenodd" sketch:type="MSPage">
        <g id="Desktop-HD" sketch:type="MSArtboardGroup" transform="translate(-100.000000, -663.000000)" fill="#91AA9D">
            <g id="Scaling-a-business" sketch:type="MSLayerGroup" transform="translate(100.000000, 67.000000)">
                <path d="M83.5272467,609.082 C83.5272467,609.082 75.6392467,606.979 73.8082467,605.531 C72.7362467,603.034 69.3222467,596 69.3222467,596 C69.3222467,596 61.5222467,602.703 61.0992467,606.839 C60.8282467,609.482 61.5012467,611.729 62.2202467,614.315 C57.2002467,618.008 51.2342467,622.503 46.3332467,627.026 C44.2002467,628.993 41.2892467,631.266 42.0342467,634.688 C39.5572467,637.88 35.5962467,639.589 34.9322467,644.594 C40.0182467,643.948 41.5852467,639.784 45.0252467,637.492 C48.5822467,638.057 50.5922467,635.229 52.5012467,633.193 C54.2122467,631.368 55.6652467,629.69 56.9872467,628.146 C60.2282467,624.365 62.5062467,620.31 65.3972467,617.306 C68.9152467,618.626 73.4372467,618.957 76.4252467,617.306 C78.2702467,616.287 83.5272467,609.082 83.5272467,609.082 Z M59.2292467,630.389 C61.6672467,634.6 63.3322467,639.453 62.7802467,646.276 C61.7122467,659.476 51.2142467,669.594 38.2962467,670.573 C21.7092467,671.832 7.50024669,658.99 8.95224669,641.044 C9.99624669,628.141 20.2942467,617.742 33.4362467,616.745 C39.6692467,616.273 44.6612467,617.681 49.3232467,620.297 C51.6202467,618.232 54.2522467,616.503 56.6122467,614.503 C48.8062467,607.797 32.8622467,605.951 21.8482467,610.578 C9.10824669,615.93 -1.47175331,629.49 0.168246694,647.397 C1.77824669,664.982 16.7512467,679.579 35.6792467,679.545 C55.0382467,679.509 70.0722467,664.951 71.5652467,647.024 C72.3732467,637.315 69.7552467,629.615 64.8362467,622.914 C63.1312467,625.569 61.0492467,627.849 59.2292467,630.389 Z M37.7352467,634.688 C39.0922467,632.93 39.2652467,630.301 40.3522467,628.707 C40.8712467,627.945 41.9912467,627.494 41.6602467,626.838 C29.2542467,622.902 17.7722467,631.815 17.9232467,643.846 C18.0532467,654.163 26.5102467,661.602 35.8662467,661.602 C47.3342467,661.602 56.8122467,650.347 52.6872467,637.679 C51.5622467,638.278 50.3682467,639.607 48.5752467,640.295 C47.3192467,640.777 45.6292467,640.653 44.8372467,641.79 C45.6112467,648.432 40.9862467,652.163 37.1742467,652.631 C23.5152467,654.307 23.7032467,632.291 37.7352467,634.688 Z" id="Fill-1" sketch:type="MSShapeGroup"></path>
            </g>
        </g>
    </g>
</svg>