<?xml version="1.0" encoding="UTF-8" standalone="no"?>
<svg width="73px" height="73px" viewBox="0 0 73 73" version="1.1" xmlns="http://www.w3.org/2000/svg" xmlns:xlink="http://www.w3.org/1999/xlink" xmlns:sketch="http://www.bohemiancoding.com/sketch/ns">
    <!-- Generator: Sketch 3.3.2 (12043) - http://www.bohemiancoding.com/sketch -->
    <title>Imported-Layers</title>
    <desc>Created with Sketch.</desc>
    <defs></defs>
    <g id="Page-1" stroke="none" stroke-width="1" fill="none" fill-rule="evenodd" sketch:type="MSPage">
        <g id="Desktop-HD" sketch:type="MSArtboardGroup" transform="translate(-463.000000, -672.000000)" fill="#91AA9D">
            <g id="Scaling-a-business" sketch:type="MSLayerGroup" transform="translate(100.000000, 67.000000)">
                <path d="M428.02,642.487 C428.435,645.768 428.118,650.116 427.705,653.808 C424.377,660.547 416.9,665.944 410.144,667.868 C410.189,665.993 410.243,664.151 410.327,662.387 C411.855,661.593 413.035,661.188 413.85,660.039 C415.484,657.735 415.947,651.504 415.856,647.655 C415.791,644.873 415.417,642.905 415.686,641.414 C415.83,640.612 418.371,636.976 419.026,636.451 C421.598,637.17 424.868,636.158 426.735,637.658 C427.65,638.393 427.777,640.569 428.02,642.487 M416.328,634.304 C411.085,635.065 408.565,626.27 411.703,622.768 C412.488,621.892 413.763,621.303 415.171,621.158 C422.966,620.359 422.335,633.433 416.328,634.304 M399.882,632.158 C399.746,632.167 399.61,632.167 399.476,632.163 C399.341,632.167 399.206,632.167 399.069,632.158 C393.007,631.73 391.418,618.577 399.326,618.342 L399.625,618.342 C407.533,618.577 405.945,631.73 399.882,632.158 M382.624,634.304 C376.617,633.433 375.986,620.359 383.78,621.158 C385.189,621.303 386.464,621.892 387.249,622.768 C390.386,626.27 387.866,635.065 382.624,634.304 M379.925,636.451 C380.581,636.976 383.121,640.612 383.266,641.414 C383.535,642.905 383.161,644.873 383.096,647.655 C383.005,651.504 383.468,657.735 385.102,660.039 C385.917,661.188 387.096,661.593 388.624,662.387 C388.708,664.151 388.763,665.993 388.808,667.868 C382.051,665.944 374.575,659.703 371.247,653.808 C370.833,650.116 370.517,645.768 370.932,642.487 C371.174,640.569 371.302,638.393 372.217,637.658 C374.084,636.158 377.354,637.17 379.925,636.451 M391.746,660.462 C390.27,660.341 387.916,659.535 387.249,658.047 C386.785,657.014 386.607,654.807 386.35,652.95 C385.812,649.073 386.021,645.614 386.478,641.816 C386.773,639.368 386.691,637.314 388.405,636.451 C389.233,636.034 394.728,633.778 395.857,634.103 C397.42,634.552 398.059,638.499 399.476,639.467 C400.893,638.499 401.532,634.552 403.095,634.103 C404.224,633.778 409.719,636.034 410.546,636.451 C412.261,637.314 412.179,639.368 412.473,641.816 C412.931,645.614 413.139,649.073 412.602,652.95 C412.345,654.807 412.166,657.014 411.703,658.047 C411.036,659.535 408.681,660.341 407.206,660.462 C407.154,662.81 407.072,665.72 406.984,668.735 C404.64,669.164 402.226,669.39 399.758,669.39 C397.091,669.39 394.486,669.125 391.965,668.626 C391.878,665.65 391.797,662.783 391.746,660.462 M435.952,641.476 C435.952,621.33 419.621,605 399.476,605 C379.331,605 363,621.33 363,641.476 C363,661.621 379.331,677.952 399.476,677.952 C419.621,677.952 435.952,661.621 435.952,641.476" id="Imported-Layers" sketch:type="MSShapeGroup"></path>
            </g>
        </g>
    </g>
</svg>