<?xml version="1.0" encoding="UTF-8" standalone="no"?>
<svg width="100px" height="100px" viewBox="0 0 100 100" version="1.1" xmlns="http://www.w3.org/2000/svg" xmlns:xlink="http://www.w3.org/1999/xlink" xmlns:sketch="http://www.bohemiancoding.com/sketch/ns">
    <!-- Generator: Sketch 3.3.2 (12043) - http://www.bohemiancoding.com/sketch -->
    <title>icon_team</title>
    <desc>Created with Sketch.</desc>
    <defs></defs>
    <g id="Page-1" stroke="none" stroke-width="1" fill="none" fill-rule="evenodd" sketch:type="MSPage">
        <g id="icon_team" sketch:type="MSArtboardGroup">
            <rect id="Rectangle-89-Copy-4" fill="#FFFFFF" sketch:type="MSShapeGroup" x="0" y="0" width="100" height="100"></rect>
            <path d="M78.02,50.487 C78.435,53.768 78.118,58.116 77.705,61.808 C74.377,68.547 66.9,73.944 60.144,75.868 C60.189,73.993 60.243,72.151 60.327,70.387 C61.855,69.593 63.035,69.188 63.85,68.039 C65.484,65.735 65.947,59.504 65.856,55.655 C65.791,52.873 65.417,50.905 65.686,49.414 C65.83,48.612 68.371,44.976 69.026,44.451 C71.598,45.17 74.868,44.158 76.735,45.658 C77.65,46.393 77.777,48.569 78.02,50.487 M66.328,42.304 C61.085,43.065 58.565,34.27 61.703,30.768 C62.488,29.892 63.763,29.303 65.171,29.158 C72.966,28.359 72.335,41.433 66.328,42.304 M49.882,40.158 C49.746,40.167 49.61,40.167 49.476,40.163 C49.341,40.167 49.206,40.167 49.069,40.158 C43.007,39.73 41.418,26.577 49.326,26.342 L49.625,26.342 C57.533,26.577 55.945,39.73 49.882,40.158 M32.624,42.304 C26.617,41.433 25.986,28.359 33.78,29.158 C35.189,29.303 36.464,29.892 37.249,30.768 C40.386,34.27 37.866,43.065 32.624,42.304 M29.925,44.451 C30.581,44.976 33.121,48.612 33.266,49.414 C33.535,50.905 33.161,52.873 33.096,55.655 C33.005,59.504 33.468,65.735 35.102,68.039 C35.917,69.188 37.096,69.593 38.624,70.387 C38.708,72.151 38.763,73.993 38.808,75.868 C32.051,73.944 24.575,67.703 21.247,61.808 C20.833,58.116 20.517,53.768 20.932,50.487 C21.174,48.569 21.302,46.393 22.217,45.658 C24.084,44.158 27.354,45.17 29.925,44.451 M41.746,68.462 C40.27,68.341 37.916,67.535 37.249,66.047 C36.785,65.014 36.607,62.807 36.35,60.95 C35.812,57.073 36.021,53.614 36.478,49.816 C36.773,47.368 36.691,45.314 38.405,44.451 C39.233,44.034 44.728,41.778 45.857,42.103 C47.42,42.552 48.059,46.499 49.476,47.467 C50.893,46.499 51.532,42.552 53.095,42.103 C54.224,41.778 59.719,44.034 60.546,44.451 C62.261,45.314 62.179,47.368 62.473,49.816 C62.931,53.614 63.139,57.073 62.602,60.95 C62.345,62.807 62.166,65.014 61.703,66.047 C61.036,67.535 58.681,68.341 57.206,68.462 C57.154,70.81 57.072,73.72 56.984,76.735 C54.64,77.164 52.226,77.39 49.758,77.39 C47.091,77.39 44.486,77.125 41.965,76.626 C41.878,73.65 41.797,70.783 41.746,68.462 M85.952,49.476 C85.952,29.33 69.621,13 49.476,13 C29.331,13 13,29.33 13,49.476 C13,69.621 29.331,85.952 49.476,85.952 C69.621,85.952 85.952,69.621 85.952,49.476" id="Imported-Layers" fill="#0079BA" sketch:type="MSShapeGroup"></path>
        </g>
    </g>
</svg>