<?xml version="1.0" encoding="UTF-8" standalone="no"?>
<svg width="69px" height="84px" viewBox="0 0 69 84" version="1.1" xmlns="http://www.w3.org/2000/svg" xmlns:xlink="http://www.w3.org/1999/xlink" xmlns:sketch="http://www.bohemiancoding.com/sketch/ns">
    <!-- Generator: Sketch 3.3.2 (12043) - http://www.bohemiancoding.com/sketch -->
    <title>Imported-Layers</title>
    <desc>Created with Sketch.</desc>
    <defs></defs>
    <g id="Page-1" stroke="none" stroke-width="1" fill="none" fill-rule="evenodd" sketch:type="MSPage">
        <g id="Desktop-HD" sketch:type="MSArtboardGroup" transform="translate(-826.000000, -232.000000)" fill="#91AA9D">
            <g id="Scaling-a-business" sketch:type="MSLayerGroup" transform="translate(100.000000, 67.000000)">
                <path d="M783.481527,216.700563 L772.433527,216.700563 L780.112527,208.293563 L791.161527,208.293563 L783.481527,216.700563 L783.481527,216.700563 Z M754.063527,216.700563 L761.742527,208.293563 L772.790527,208.293563 L765.111527,216.700563 L754.063527,216.700563 L754.063527,216.700563 Z M735.693527,216.700563 L743.372527,208.293563 L754.421527,208.293563 L746.741527,216.700563 L735.693527,216.700563 L735.693527,216.700563 Z M734.055527,194.967563 L744.276527,188.574563 L743.782527,197.093563 L733.561527,203.486563 L734.055527,194.967563 L734.055527,194.967563 Z M751.048527,184.338563 L761.269527,177.944563 L760.775527,186.463563 L750.555527,192.856563 L751.048527,184.338563 L751.048527,184.338563 Z M768.042527,173.708563 L778.264527,167.315563 L777.770527,175.835563 L767.550527,182.227563 L768.042527,173.708563 L768.042527,173.708563 Z M792.380527,205.462563 L733.904527,205.462563 L783.333527,174.775563 C784.176527,174.252563 784.442527,173.133563 783.928527,172.275563 L780.084527,165.871563 C779.570527,165.013563 778.469527,164.743563 777.626527,165.266563 L726.856527,196.785563 C726.013527,197.308563 725.747527,198.428563 726.262527,199.285563 L730.105527,205.690563 C730.375527,206.140563 730.809527,206.423563 731.280527,206.520563 C731.174527,206.752563 731.111527,207.008563 731.111527,207.281563 L731.111527,246.266563 C731.111527,247.271563 731.912527,248.085563 732.899527,248.085563 L792.380527,248.085563 C793.368527,248.085563 794.168527,247.271563 794.168527,246.266563 L794.168527,207.281563 C794.168527,206.277563 793.368527,205.462563 792.380527,205.462563 L792.380527,205.462563 L792.380527,205.462563 Z" id="Imported-Layers" sketch:type="MSShapeGroup"></path>
            </g>
        </g>
    </g>
</svg>