<?xml version="1.0" encoding="UTF-8" standalone="no"?>
<svg width="100px" height="100px" viewBox="0 0 100 100" version="1.1" xmlns="http://www.w3.org/2000/svg" xmlns:xlink="http://www.w3.org/1999/xlink" xmlns:sketch="http://www.bohemiancoding.com/sketch/ns">
    <!-- Generator: Sketch 3.3.2 (12043) - http://www.bohemiancoding.com/sketch -->
    <title>icon_board</title>
    <desc>Created with Sketch.</desc>
    <defs></defs>
    <g id="Page-1" stroke="none" stroke-width="1" fill="none" fill-rule="evenodd" sketch:type="MSPage">
        <g id="icon_board" sketch:type="MSArtboardGroup">
            <rect id="Rectangle-89-Copy" fill="#FFFFFF" sketch:type="MSShapeGroup" x="0" y="0" width="100" height="100"></rect>
            <path d="M49.405069,66.4778822 C40.851069,66.7048822 33.739069,59.9648822 33.515069,51.4128822 C33.276069,42.8618822 40.019069,35.7418822 48.573069,35.5138822 C57.115069,35.2868822 64.239069,42.0308822 64.463069,50.5628822 C64.705069,59.1168822 57.953069,66.2378822 49.405069,66.4778822 M78.152069,67.6008822 C78.312069,67.6558822 78.441069,67.6068822 78.548069,67.4508822 C80.095069,64.6848822 81.243069,61.6918822 81.983069,58.5218822 C82.001069,58.2978822 81.875069,58.1598822 81.611069,58.0978822 L81.617069,58.0918822 C77.922069,57.3858822 75.077069,54.2008822 74.951069,50.2898822 C74.853069,46.3698822 77.523069,43.0218822 81.184069,42.1318822 L81.184069,42.1258822 C81.430069,42.0578822 81.559069,41.9228822 81.507069,41.6958822 C80.626069,38.5958822 79.321069,35.6648822 77.633069,32.9978822 C77.495069,32.8128822 77.323069,32.7948822 77.093069,32.9548822 L77.093069,32.9178822 C73.972069,35.0538822 69.714069,34.8148822 66.860069,32.1198822 C64.018069,29.4248822 63.560069,25.1708822 65.506069,21.9538822 L65.491069,21.9598822 C65.632069,21.7208822 65.605069,21.5488822 65.417069,21.4078822 C62.661069,19.8848822 59.678069,18.7248822 56.507069,18.0008822 C56.286069,17.9888822 56.151069,18.0988822 56.114069,18.3568822 L56.108069,18.3508822 C55.387069,22.0638822 52.219069,24.9068822 48.284069,25.0108822 C44.365069,25.1148822 41.022069,22.4448822 40.120069,18.7928822 C40.053069,18.5288822 39.924069,18.4308822 39.687069,18.4668822 C36.584069,19.3568822 33.665069,20.6588822 31.013069,22.3318822 C30.796069,22.4878822 30.777069,22.6598822 30.940069,22.8988822 L30.934069,22.8988822 C33.042069,26.0208822 32.824069,30.2808822 30.111069,33.1228822 C27.416069,35.9748822 23.174069,36.4288822 19.955069,34.4738822 L19.955069,34.4828822 C19.715069,34.3448822 19.543069,34.3658822 19.411069,34.5508822 C17.880069,37.3098822 16.729069,40.3088822 16.004069,43.4548822 C15.977069,43.6848822 16.084069,43.8138822 16.336069,43.8748822 C20.041069,44.5808822 22.901069,47.7698822 22.999069,51.6838822 C23.110069,55.6308822 20.446069,58.9518822 16.778069,59.8718822 L16.787069,59.8788822 C16.526069,59.9218822 16.428069,60.0658822 16.446069,60.2958822 C17.349069,63.3778822 18.647069,66.2928822 20.323069,68.9638822 C20.476069,69.1848822 20.651069,69.2148822 20.891069,69.0558822 L20.891069,69.0618822 C24.006069,66.9318822 28.263069,67.1648822 31.118069,69.8538822 C33.966069,72.5578822 34.417069,76.8028822 32.484069,80.0378822 C32.339069,80.2588822 32.358069,80.4308822 32.570069,80.5688822 C35.310069,82.1098822 38.300069,83.2548822 41.443069,83.9668822 C41.685069,84.0128822 41.827069,83.8988822 41.863069,83.6408822 C42.573069,79.9398822 45.768069,77.0878822 49.678069,76.9618822 C53.613069,76.8638822 56.946069,79.5378822 57.858069,83.1928822 L57.864069,83.1868822 C57.938069,83.4508822 58.060069,83.5488822 58.281069,83.5248822 C61.397069,82.6408822 64.303069,81.3268822 66.967069,79.6508822 C67.195069,79.5038822 67.207069,79.3288822 67.050069,79.0948822 L67.056069,79.0948822 C64.942069,75.9798822 65.157069,71.7168822 67.848069,68.8718822 C70.592069,65.9678822 74.917069,65.5448822 78.152069,67.6008822" id="Imported-Layers" fill="#0079BA" sketch:type="MSShapeGroup"></path>
        </g>
    </g>
</svg>