<?xml version="1.0" encoding="UTF-8" standalone="no"?>
<svg width="100px" height="100px" viewBox="0 0 100 100" version="1.1" xmlns="http://www.w3.org/2000/svg" xmlns:xlink="http://www.w3.org/1999/xlink" xmlns:sketch="http://www.bohemiancoding.com/sketch/ns">
    <!-- Generator: Sketch 3.3.2 (12043) - http://www.bohemiancoding.com/sketch -->
    <title>icon_market</title>
    <desc>Created with Sketch.</desc>
    <defs></defs>
    <g id="Page-1" stroke="none" stroke-width="1" fill="none" fill-rule="evenodd" sketch:type="MSPage">
        <g id="icon_market" sketch:type="MSArtboardGroup">
            <rect id="Rectangle-89-Copy-3" fill="#FFFFFF" sketch:type="MSShapeGroup" x="0" y="0" width="100" height="100"></rect>
            <g id="Imported-Layers" sketch:type="MSLayerGroup" transform="translate(11.000000, 4.000000)" fill="#0079BA">
                <path d="M84.488,14.045 C84.488,14.045 76.6,11.942 74.769,10.494 C73.697,7.997 70.283,0.963 70.283,0.963 C70.283,0.963 62.483,7.666 62.06,11.802 C61.789,14.445 62.462,16.692 63.181,19.278 C58.161,22.971 52.195,27.466 47.294,31.989 C45.161,33.956 42.25,36.229 42.995,39.651 C40.518,42.843 36.557,44.552 35.893,49.557 C40.979,48.911 42.546,44.747 45.986,42.455 C49.543,43.02 51.553,40.192 53.462,38.156 C55.173,36.331 56.626,34.653 57.948,33.109 C61.189,29.328 63.467,25.273 66.358,22.269 C69.876,23.589 74.398,23.92 77.386,22.269 C79.231,21.25 84.488,14.045 84.488,14.045" id="Fill-1" sketch:type="MSShapeGroup"></path>
                <path d="M60.19,35.352 C62.628,39.563 64.293,44.416 63.741,51.239 C62.673,64.439 52.175,74.557 39.257,75.536 C22.67,76.795 8.461,63.953 9.913,46.007 C10.957,33.104 21.255,22.705 34.397,21.708 C40.63,21.236 45.622,22.644 50.284,25.26 C52.581,23.195 55.213,21.466 57.573,19.466 C49.767,12.76 33.823,10.914 22.809,15.541 C10.069,20.893 -0.511,34.453 1.129,52.36 C2.739,69.945 17.712,84.542 36.64,84.508 C55.999,84.472 71.033,69.914 72.526,51.987 C73.334,42.278 70.716,34.578 65.797,27.877 C64.092,30.532 62.01,32.812 60.19,35.352" id="Fill-2" sketch:type="MSShapeGroup"></path>
                <path d="M38.696,39.651 C40.053,37.893 40.226,35.264 41.313,33.67 C41.832,32.908 42.952,32.457 42.621,31.801 C30.215,27.865 18.733,36.778 18.884,48.809 C19.014,59.126 27.471,66.565 36.827,66.565 C48.295,66.565 57.773,55.31 53.648,42.642 C52.523,43.241 51.329,44.57 49.536,45.258 C48.28,45.74 46.59,45.616 45.798,46.753 C46.572,53.395 41.947,57.126 38.135,57.594 C24.476,59.27 24.664,37.254 38.696,39.651" id="Fill-3" sketch:type="MSShapeGroup"></path>
            </g>
        </g>
    </g>
</svg>