<?xml version="1.0" encoding="UTF-8" standalone="no"?>
<svg width="100px" height="100px" viewBox="0 0 100 100" version="1.1" xmlns="http://www.w3.org/2000/svg" xmlns:xlink="http://www.w3.org/1999/xlink" xmlns:sketch="http://www.bohemiancoding.com/sketch/ns">
    <!-- Generator: Sketch 3.3.2 (12043) - http://www.bohemiancoding.com/sketch -->
    <title>icon_story</title>
    <desc>Created with Sketch.</desc>
    <defs></defs>
    <g id="Page-1" stroke="none" stroke-width="1" fill="none" fill-rule="evenodd" sketch:type="MSPage">
        <g id="icon_story" sketch:type="MSArtboardGroup">
            <rect id="Rectangle-89-Copy-2" fill="#FFFFFF" sketch:type="MSShapeGroup" x="0" y="0" width="100" height="100"></rect>
            <path d="M72.4815266,56.7005626 L61.4335266,56.7005626 L69.1125266,48.2935626 L80.1615266,48.2935626 L72.4815266,56.7005626 L72.4815266,56.7005626 Z M43.0635266,56.7005626 L50.7425266,48.2935626 L61.7905266,48.2935626 L54.1115266,56.7005626 L43.0635266,56.7005626 L43.0635266,56.7005626 Z M24.6935266,56.7005626 L32.3725266,48.2935626 L43.4215266,48.2935626 L35.7415266,56.7005626 L24.6935266,56.7005626 L24.6935266,56.7005626 Z M23.0555266,34.9675626 L33.2765266,28.5745626 L32.7825266,37.0935626 L22.5615266,43.4865626 L23.0555266,34.9675626 L23.0555266,34.9675626 Z M40.0485266,24.3385626 L50.2695266,17.9445626 L49.7755266,26.4635626 L39.5555266,32.8565626 L40.0485266,24.3385626 L40.0485266,24.3385626 Z M57.0425266,13.7085626 L67.2645266,7.31556262 L66.7705266,15.8355626 L56.5505266,22.2275626 L57.0425266,13.7085626 L57.0425266,13.7085626 Z M81.3805266,45.4625626 L22.9045266,45.4625626 L72.3335266,14.7755626 C73.1765266,14.2525626 73.4425266,13.1335626 72.9285266,12.2755626 L69.0845266,5.87156262 C68.5705266,5.01356262 67.4695266,4.74356262 66.6265266,5.26656262 L15.8565266,36.7855626 C15.0135266,37.3085626 14.7475266,38.4285626 15.2625266,39.2855626 L19.1055266,45.6905626 C19.3755266,46.1405626 19.8095266,46.4235626 20.2805266,46.5205626 C20.1745266,46.7525626 20.1115266,47.0085626 20.1115266,47.2815626 L20.1115266,86.2665626 C20.1115266,87.2715626 20.9125266,88.0855626 21.8995266,88.0855626 L81.3805266,88.0855626 C82.3685266,88.0855626 83.1685266,87.2715626 83.1685266,86.2665626 L83.1685266,47.2815626 C83.1685266,46.2775626 82.3685266,45.4625626 81.3805266,45.4625626 L81.3805266,45.4625626 Z" id="Imported-Layers" fill="#0079BA" sketch:type="MSShapeGroup"></path>
        </g>
    </g>
</svg>