<?xml version="1.0" encoding="UTF-8" standalone="no"?>
<svg width="73px" height="76px" viewBox="0 0 73 76" version="1.1" xmlns="http://www.w3.org/2000/svg" xmlns:xlink="http://www.w3.org/1999/xlink" xmlns:sketch="http://www.bohemiancoding.com/sketch/ns">
    <!-- Generator: Sketch 3.3.2 (12043) - http://www.bohemiancoding.com/sketch -->
    <title>Imported-Layers</title>
    <desc>Created with Sketch.</desc>
    <defs></defs>
    <g id="Page-1" stroke="none" stroke-width="1" fill="none" fill-rule="evenodd" sketch:type="MSPage">
        <g id="Desktop-HD" sketch:type="MSArtboardGroup" transform="translate(-100.000000, -239.000000)" fill="#91AA9D">
            <g id="Scaling-a-business" sketch:type="MSLayerGroup" transform="translate(100.000000, 67.000000)">
                <path d="M73.001,202.768 L73.001,206.833 C73.001,206.994 72.87,207.114 72.711,207.101 L62.686,206.274 C62.526,206.261 62.396,206.119 62.396,205.959 L62.396,203.643 C62.396,203.483 62.526,203.341 62.686,203.328 L72.711,202.501 C72.87,202.488 73.001,202.608 73.001,202.768 L73.001,202.768 L73.001,202.768 Z M63.893,182.679 L56.22,189.182 C56.098,189.286 55.905,189.278 55.792,189.165 L54.155,187.528 C54.041,187.415 54.033,187.222 54.137,187.099 L60.641,179.426 C60.744,179.304 60.922,179.297 61.035,179.41 L63.91,182.284 C64.023,182.398 64.016,182.576 63.893,182.679 L63.893,182.679 L63.893,182.679 Z M50.449,192.863 C52.244,194.874 56.322,200.403 55.448,208.308 C54.933,212.964 52.746,216.302 50.631,219.531 C48.326,223.049 45.95,226.155 45.696,231.46 C45.695,231.465 45.693,231.468 45.693,231.473 C45.63,231.988 45.242,232.171 44.596,232.171 L27.409,232.171 C26.905,232.171 26.758,231.698 26.729,231.268 C26.729,231.262 26.727,231.257 26.727,231.251 C26.325,226.162 23.991,222.922 21.726,219.273 C18.95,214.801 16.328,210.577 17.013,204.069 C17.694,197.602 21.011,193.501 23.673,191.201 C25.694,189.454 29.994,186.521 36.076,186.51 L36.114,186.51 C43.654,186.51 48.332,190.49 50.449,192.863 L50.449,192.863 L50.449,192.863 Z M38.616,172.29 L37.789,182.314 C37.776,182.474 37.634,182.605 37.474,182.605 L35.159,182.605 C34.998,182.605 34.857,182.474 34.843,182.314 L34.016,172.29 C34.003,172.13 34.123,172 34.284,172 L38.349,172 C38.509,172 38.63,172.13 38.616,172.29 L38.616,172.29 L38.616,172.29 Z M18.846,187.528 L17.209,189.165 C17.095,189.278 16.903,189.286 16.78,189.182 L9.107,182.679 C8.985,182.576 8.978,182.398 9.091,182.284 L11.966,179.41 C12.079,179.297 12.256,179.304 12.36,179.426 L18.864,187.099 C18.967,187.222 18.959,187.415 18.846,187.528 L18.846,187.528 L18.846,187.528 Z M10.315,203.328 C10.475,203.341 10.605,203.483 10.605,203.643 L10.605,205.959 C10.605,206.119 10.475,206.261 10.315,206.274 L0.29,207.101 C0.131,207.114 0,206.994 0,206.833 L0,202.768 C0,202.608 0.131,202.488 0.29,202.501 L10.315,203.328 L10.315,203.328 Z M26.786,238.331 L26.802,234.166 C26.803,234.06 26.891,233.972 26.997,233.972 L45.452,233.972 C45.559,233.972 45.644,234.06 45.642,234.166 L45.631,236.855 C45.633,236.962 45.549,237.056 45.442,237.064 L26.978,238.509 C26.872,238.518 26.785,238.437 26.786,238.331 L26.786,238.331 L26.786,238.331 Z M27.028,240.545 L45.469,239.101 C45.575,239.092 45.641,239.171 45.615,239.274 L43.75,243.853 C43.693,243.943 43.558,244.016 43.452,244.016 L29.745,244.016 C29.639,244.016 29.035,243.585 28.781,243.384 C27.843,242.642 26.925,240.73 26.925,240.73 C26.876,240.636 26.922,240.551 27.028,240.545 L27.028,240.545 L27.028,240.545 Z M33.044,245.528 L39.427,245.528 C39.533,245.528 39.69,248.006 36.235,247.943 C32.781,247.881 32.937,245.528 33.044,245.528 L33.044,245.528 L33.044,245.528 Z" id="Imported-Layers" sketch:type="MSShapeGroup"></path>
            </g>
        </g>
    </g>
</svg>