<?xml version="1.0" encoding="UTF-8" standalone="no"?>
<svg width="100px" height="100px" viewBox="0 0 100 100" version="1.1" xmlns="http://www.w3.org/2000/svg" xmlns:xlink="http://www.w3.org/1999/xlink" xmlns:sketch="http://www.bohemiancoding.com/sketch/ns">
    <!-- Generator: Sketch 3.3.2 (12043) - http://www.bohemiancoding.com/sketch -->
    <title>icon_idea</title>
    <desc>Created with Sketch.</desc>
    <defs></defs>
    <g id="Page-1" stroke="none" stroke-width="1" fill="none" fill-rule="evenodd" sketch:type="MSPage">
        <g id="icon_idea" sketch:type="MSArtboardGroup">
            <rect id="Rectangle-89" fill="#FFFFFF" sketch:type="MSShapeGroup" x="0" y="0" width="100" height="100"></rect>
            <path d="M86.001,42.768 L86.001,46.833 C86.001,46.994 85.87,47.114 85.711,47.101 L75.686,46.274 C75.526,46.261 75.396,46.119 75.396,45.959 L75.396,43.643 C75.396,43.483 75.526,43.341 75.686,43.328 L85.711,42.501 C85.87,42.488 86.001,42.608 86.001,42.768 L86.001,42.768 Z M76.893,22.679 L69.22,29.182 C69.098,29.286 68.905,29.278 68.792,29.165 L67.155,27.528 C67.041,27.415 67.033,27.222 67.137,27.099 L73.641,19.426 C73.744,19.304 73.922,19.297 74.035,19.41 L76.91,22.284 C77.023,22.398 77.016,22.576 76.893,22.679 L76.893,22.679 Z M63.449,32.863 C65.244,34.874 69.322,40.403 68.448,48.308 C67.933,52.964 65.746,56.302 63.631,59.531 C61.326,63.049 58.95,66.155 58.696,71.46 C58.695,71.465 58.693,71.468 58.693,71.473 C58.63,71.988 58.242,72.171 57.596,72.171 L40.409,72.171 C39.905,72.171 39.758,71.698 39.729,71.268 C39.729,71.262 39.727,71.257 39.727,71.251 C39.325,66.162 36.991,62.922 34.726,59.273 C31.95,54.801 29.328,50.577 30.013,44.069 C30.694,37.602 34.011,33.501 36.673,31.201 C38.694,29.454 42.994,26.521 49.076,26.51 L49.114,26.51 C56.654,26.51 61.332,30.49 63.449,32.863 L63.449,32.863 Z M51.616,12.29 L50.789,22.314 C50.776,22.474 50.634,22.605 50.474,22.605 L48.159,22.605 C47.998,22.605 47.857,22.474 47.843,22.314 L47.016,12.29 C47.003,12.13 47.123,12 47.284,12 L51.349,12 C51.509,12 51.63,12.13 51.616,12.29 L51.616,12.29 Z M31.846,27.528 L30.209,29.165 C30.095,29.278 29.903,29.286 29.78,29.182 L22.107,22.679 C21.985,22.576 21.978,22.398 22.091,22.284 L24.966,19.41 C25.079,19.297 25.256,19.304 25.36,19.426 L31.864,27.099 C31.967,27.222 31.959,27.415 31.846,27.528 L31.846,27.528 Z M23.315,43.328 C23.475,43.341 23.605,43.483 23.605,43.643 L23.605,45.959 C23.605,46.119 23.475,46.261 23.315,46.274 L13.29,47.101 C13.131,47.114 13,46.994 13,46.833 L13,42.768 C13,42.608 13.131,42.488 13.29,42.501 L23.315,43.328 L23.315,43.328 Z M39.786,78.331 L39.802,74.166 C39.803,74.06 39.891,73.972 39.997,73.972 L58.452,73.972 C58.559,73.972 58.644,74.06 58.642,74.166 L58.631,76.855 C58.633,76.962 58.549,77.056 58.442,77.064 L39.978,78.509 C39.872,78.518 39.785,78.437 39.786,78.331 L39.786,78.331 Z M40.028,80.545 L58.469,79.101 C58.575,79.092 58.641,79.171 58.615,79.274 L56.75,83.853 C56.693,83.943 56.558,84.016 56.452,84.016 L42.745,84.016 C42.639,84.016 42.035,83.585 41.781,83.384 C40.843,82.642 39.925,80.73 39.925,80.73 C39.876,80.636 39.922,80.551 40.028,80.545 L40.028,80.545 Z M46.044,85.528 L52.427,85.528 C52.533,85.528 52.69,88.006 49.235,87.943 C45.781,87.881 45.937,85.528 46.044,85.528 L46.044,85.528 Z" id="Imported-Layers" fill="#0079BA" sketch:type="MSShapeGroup"></path>
        </g>
    </g>
</svg>