<?xml version="1.0" encoding="UTF-8" standalone="no"?>
<svg width="66px" height="66px" viewBox="0 0 66 66" version="1.1" xmlns="http://www.w3.org/2000/svg" xmlns:xlink="http://www.w3.org/1999/xlink" xmlns:sketch="http://www.bohemiancoding.com/sketch/ns">
    <!-- Generator: Sketch 3.3.2 (12043) - http://www.bohemiancoding.com/sketch -->
    <title>Imported-Layers</title>
    <desc>Created with Sketch.</desc>
    <defs></defs>
    <g id="Page-1" stroke="none" stroke-width="1" fill="none" fill-rule="evenodd" sketch:type="MSPage">
        <g id="Desktop-HD" sketch:type="MSArtboardGroup" transform="translate(-463.000000, -245.000000)" fill="#91AA9D">
            <g id="Scaling-a-business" sketch:type="MSLayerGroup" transform="translate(100.000000, 67.000000)">
                <path d="M396.405069,226.477882 C387.851069,226.704882 380.739069,219.964882 380.515069,211.412882 C380.276069,202.861882 387.019069,195.741882 395.573069,195.513882 C404.115069,195.286882 411.239069,202.030882 411.463069,210.562882 C411.705069,219.116882 404.953069,226.237882 396.405069,226.477882 M425.152069,227.600882 C425.312069,227.655882 425.441069,227.606882 425.548069,227.450882 C427.095069,224.684882 428.243069,221.691882 428.983069,218.521882 C429.001069,218.297882 428.875069,218.159882 428.611069,218.097882 L428.617069,218.091882 C424.922069,217.385882 422.077069,214.200882 421.951069,210.289882 C421.853069,206.369882 424.523069,203.021882 428.184069,202.131882 L428.184069,202.125882 C428.430069,202.057882 428.559069,201.922882 428.507069,201.695882 C427.626069,198.595882 426.321069,195.664882 424.633069,192.997882 C424.495069,192.812882 424.323069,192.794882 424.093069,192.954882 L424.093069,192.917882 C420.972069,195.053882 416.714069,194.814882 413.860069,192.119882 C411.018069,189.424882 410.560069,185.170882 412.506069,181.953882 L412.491069,181.959882 C412.632069,181.720882 412.605069,181.548882 412.417069,181.407882 C409.661069,179.884882 406.678069,178.724882 403.507069,178.000882 C403.286069,177.988882 403.151069,178.098882 403.114069,178.356882 L403.108069,178.350882 C402.387069,182.063882 399.219069,184.906882 395.284069,185.010882 C391.365069,185.114882 388.022069,182.444882 387.120069,178.792882 C387.053069,178.528882 386.924069,178.430882 386.687069,178.466882 C383.584069,179.356882 380.665069,180.658882 378.013069,182.331882 C377.796069,182.487882 377.777069,182.659882 377.940069,182.898882 L377.934069,182.898882 C380.042069,186.020882 379.824069,190.280882 377.111069,193.122882 C374.416069,195.974882 370.174069,196.428882 366.955069,194.473882 L366.955069,194.482882 C366.715069,194.344882 366.543069,194.365882 366.411069,194.550882 C364.880069,197.309882 363.729069,200.308882 363.004069,203.454882 C362.977069,203.684882 363.084069,203.813882 363.336069,203.874882 C367.041069,204.580882 369.901069,207.769882 369.999069,211.683882 C370.110069,215.630882 367.446069,218.951882 363.778069,219.871882 L363.787069,219.878882 C363.526069,219.921882 363.428069,220.065882 363.446069,220.295882 C364.349069,223.377882 365.647069,226.292882 367.323069,228.963882 C367.476069,229.184882 367.651069,229.214882 367.891069,229.055882 L367.891069,229.061882 C371.006069,226.931882 375.263069,227.164882 378.118069,229.853882 C380.966069,232.557882 381.417069,236.802882 379.484069,240.037882 C379.339069,240.258882 379.358069,240.430882 379.570069,240.568882 C382.310069,242.109882 385.300069,243.254882 388.443069,243.966882 C388.685069,244.012882 388.827069,243.898882 388.863069,243.640882 C389.573069,239.939882 392.768069,237.087882 396.678069,236.961882 C400.613069,236.863882 403.946069,239.537882 404.858069,243.192882 L404.864069,243.186882 C404.938069,243.450882 405.060069,243.548882 405.281069,243.524882 C408.397069,242.640882 411.303069,241.326882 413.967069,239.650882 C414.195069,239.503882 414.207069,239.328882 414.050069,239.094882 L414.056069,239.094882 C411.942069,235.979882 412.157069,231.716882 414.848069,228.871882 C417.592069,225.967882 421.917069,225.544882 425.152069,227.600882" id="Imported-Layers" sketch:type="MSShapeGroup"></path>
            </g>
        </g>
    </g>
</svg>