<?xml version="1.0" encoding="UTF-8" standalone="no"?>
<svg width="48px" height="70px" viewBox="0 0 48 70" version="1.1" xmlns="http://www.w3.org/2000/svg" xmlns:xlink="http://www.w3.org/1999/xlink" xmlns:sketch="http://www.bohemiancoding.com/sketch/ns">
    <!-- Generator: Sketch 3.3.2 (12043) - http://www.bohemiancoding.com/sketch -->
    <title>Imported-Layers</title>
    <desc>Created with Sketch.</desc>
    <defs></defs>
    <g id="Page-1" stroke="none" stroke-width="1" fill="none" fill-rule="evenodd" sketch:type="MSPage">
        <g id="Desktop-HD" sketch:type="MSArtboardGroup" transform="translate(-826.000000, -675.000000)" fill="#91AA9D">
            <g id="Scaling-a-business" sketch:type="MSLayerGroup" transform="translate(100.000000, 67.000000)">
                <path d="M746.549,665.567 C746.549,667.646 748.235,669.332 750.314,669.332 C752.393,669.332 754.078,667.646 754.078,665.567 C754.078,663.488 752.393,661.802 750.314,661.802 C748.235,661.802 746.549,663.488 746.549,665.567 M746.549,653.804 C746.549,655.883 748.235,657.568 750.314,657.568 C752.393,657.568 754.078,655.883 754.078,653.804 C754.078,651.724 752.393,650.039 750.314,650.039 C748.235,650.039 746.549,651.724 746.549,653.804 M746.549,642.04 C746.549,644.119 748.235,645.805 750.314,645.805 C752.393,645.805 754.078,644.119 754.078,642.04 C754.078,639.961 752.393,638.276 750.314,638.276 C748.235,638.276 746.549,639.961 746.549,642.04 M733.216,665.567 C733.216,667.646 734.901,669.332 736.98,669.332 C739.06,669.332 740.745,667.646 740.745,665.567 C740.745,663.488 739.06,661.802 736.98,661.802 C734.901,661.802 733.216,663.488 733.216,665.567 M733.216,653.804 C733.216,655.883 734.901,657.568 736.98,657.568 C739.06,657.568 740.745,655.883 740.745,653.804 C740.745,651.724 739.06,650.039 736.98,650.039 C734.901,650.039 733.216,651.724 733.216,653.804 M733.216,642.04 C733.216,644.119 734.901,645.805 736.98,645.805 C739.06,645.805 740.745,644.119 740.745,642.04 C740.745,639.961 739.06,638.276 736.98,638.276 C734.901,638.276 733.216,639.961 733.216,642.04 M767.412,627.736 L767.412,616.811 C767.412,615.583 766.416,614.588 765.188,614.588 L735.439,614.588 C734.211,614.588 733.216,615.583 733.216,616.811 L733.216,627.736 C733.216,628.964 734.211,629.959 735.439,629.959 L765.188,629.959 C766.416,629.959 767.412,628.964 767.412,627.736 M767.412,642.04 C767.412,639.961 765.726,638.276 763.647,638.276 C761.568,638.276 759.882,639.961 759.882,642.04 C759.882,644.119 761.568,645.805 763.647,645.805 C765.726,645.805 767.412,644.119 767.412,642.04 M767.412,653.804 C767.412,651.724 765.726,650.039 763.647,650.039 C761.568,650.039 759.882,651.724 759.882,653.804 C759.882,655.883 761.568,657.568 763.647,657.568 C765.726,657.568 767.412,655.883 767.412,653.804 M767.412,665.567 C767.412,663.488 765.726,661.802 763.647,661.802 C761.568,661.802 759.882,663.488 759.882,665.567 C759.882,667.646 761.568,669.332 763.647,669.332 C765.726,669.332 767.412,667.646 767.412,665.567 M774,673.2 C774,675.656 772.009,677.647 769.553,677.647 L730.447,677.647 C727.991,677.647 726,675.656 726,673.2 L726,612.447 C726,609.991 727.991,608 730.447,608 L769.553,608 C772.009,608 774,609.991 774,612.447 L774,673.2" id="Imported-Layers" sketch:type="MSShapeGroup"></path>
            </g>
        </g>
    </g>
</svg>