<?xml version="1.0" encoding="UTF-8" standalone="no"?>
<svg width="903px" height="498px" viewBox="0 0 903 498" version="1.1" xmlns="http://www.w3.org/2000/svg" xmlns:xlink="http://www.w3.org/1999/xlink" xmlns:sketch="http://www.bohemiancoding.com/sketch/ns">
    <!-- Generator: Sketch 3.3.2 (12043) - http://www.bohemiancoding.com/sketch -->
    <title>Group</title>
    <desc>Created with Sketch.</desc>
    <defs></defs>
    <g id="SteamFab" stroke="none" stroke-width="1" fill="none" fill-rule="evenodd" sketch:type="MSPage">
        <g id="About" sketch:type="MSArtboardGroup" transform="translate(-152.000000, -1019.000000)">
            <g id="Group" sketch:type="MSLayerGroup" transform="translate(137.000000, 1021.000000)">
                <ellipse id="Oval-32-Copy-5" stroke="#193441" stroke-width="3" sketch:type="MSShapeGroup" cx="484.02199" cy="269.5" rx="202.976963" ry="201.5"></ellipse>
                <g id="Oval-32-Copy-3-+-Light-+-Machine" transform="translate(539.928796, 344.000000)">
                    <ellipse id="Oval-32-Copy-3" stroke="#193441" stroke-width="3" fill="#FF712C" sketch:type="MSShapeGroup" cx="75.5497382" cy="75" rx="75.5497382" ry="75"></ellipse>
                    <g id="Light" transform="translate(46.195923, 36.000000)" fill="#000000" sketch:type="MSShapeGroup">
                        <path d="M28.0651114,0 C15.7508278,0 4.72524834,8.0696 1.43189344,19.6784982 C0.572757375,22.226793 0.143189344,24.9166596 0.143189344,27.8896702 C0.143189344,39.4985684 5.44119506,44.0288702 9.59368603,47.5681684 C10.0232541,47.8513123 10.3096328,48.2760281 10.7392008,48.5591719 C14.175745,51.3906105 16.1803958,53.7973333 17.3259106,58.8939228 L17.3259106,75.1746947 C17.3259106,77.5814175 19.1873721,79.4218526 21.6215909,79.4218526 L35.2245786,79.4218526 C37.5156081,79.4218526 38.9475015,77.7229895 38.9475015,75.1746947 L38.9475015,59.7433544 C40.5225843,54.7883368 42.6704244,52.0984702 45.2478326,49.8333193 C47.5388621,48.2760281 49.5435129,46.435593 51.2617851,44.453586 C53.6960039,41.9052912 55.1278974,39.2154246 55.9870334,35.9592702 C56.9893588,33.1278316 57.4189269,30.296393 57.4189269,27.3233825 C57.2757375,12.4583298 43.8159392,0 28.0651114,0 L28.0651114,0 Z M35.7973359,75.0331228 C35.7973359,76.4488421 35.2245786,76.4488421 35.0813892,76.4488421 L21.4784016,76.4488421 C20.6192655,76.4488421 20.1896975,75.5994105 20.1896975,75.0331228 L20.1896975,73.6174035 L35.9405253,73.6174035 L35.9405253,70.7859649 L20.1896975,70.7859649 L20.1896975,67.9545263 L35.9405253,67.9545263 L35.7973359,75.0331228 L35.7973359,75.0331228 Z M52.9800572,34.9682667 C52.2641105,37.7997053 50.832217,40.2064281 48.8275662,42.4715789 C47.2524834,44.453586 45.391022,46.0108772 43.2431818,47.4265965 L43.0999925,47.5681684 C39.9498269,50.2580351 37.5156081,53.5141895 35.7973359,59.0354947 L35.7973359,65.1230877 L20.0465081,65.1230877 L20.0465081,58.7523509 L20.0465081,58.469207 C18.757804,52.523186 16.1803958,49.2670316 12.4574729,46.1524491 C12.0279049,45.8693053 11.7415262,45.5861614 11.3119582,45.3030175 C7.30265653,41.9052912 2.72059753,38.2244211 2.72059753,27.7480982 C2.72059753,25.0582316 3.15016556,22.6515088 3.86611228,20.3863579 C6.8730885,10.051607 16.7531532,2.68986667 27.7787327,2.68986667 C41.8112884,2.68986667 54.1255719,14.0156211 54.1255719,27.0402386 C54.4119506,29.7301053 53.9823826,32.4199719 52.9800572,34.9682667 L52.9800572,34.9682667 Z M28.6378688,26.6155228 C24.6285671,26.6155228 21.3352122,29.8716772 21.3352122,33.8356912 C21.3352122,37.3749895 23.9126204,40.2064281 27.2059753,40.9142877 L27.2059753,56.7703439 L30.0697622,56.7703439 L30.0697622,40.9142877 C33.5063064,40.2064281 36.0837146,37.3749895 36.0837146,33.8356912 C36.0837146,29.7301053 32.7903597,26.6155228 28.6378688,26.6155228 L28.6378688,26.6155228 Z M30.0697622,38.0828491 L30.0697622,33.9772632 L27.2059753,33.9772632 L27.2059753,38.0828491 C25.3445138,37.5165614 23.9126204,35.8176982 23.9126204,33.6941193 C23.9126204,31.1458246 26.0604606,29.0222456 28.6378688,29.0222456 C31.2152769,29.0222456 33.3631171,31.1458246 33.3631171,33.6941193 C33.3631171,35.8176982 32.074413,37.5165614 30.0697622,38.0828491 L30.0697622,38.0828491 Z" id="Shape"></path>
                    </g>
                    <text id="Machine" sketch:type="MSTextLayer" font-family="Exo 2.0" font-size="24" font-weight="420" fill="#113958">
                        <tspan x="176.544628" y="68.152">Machine</tspan>
                        <tspan x="176.544628" y="97.152">Learning</tspan>
                    </text>
                </g>
                <g id="Oval-32-+-Disrupt-IT-with-Micr-+-Shape" transform="translate(0.000000, 119.000000)">
                    <ellipse id="Oval-32" stroke="#193441" stroke-width="3" fill="#90959B" sketch:type="MSShapeGroup" cx="282.610605" cy="75" rx="74.9914889" ry="75"></ellipse>
                    <text id="Disrupt-IT-with-Micr" sketch:type="MSTextLayer" font-family="Exo 2.0" font-size="23.8226601" font-weight="420" sketch:alignment="right" fill="#113958">
                        <tspan x="13.2715687" y="63.004705">Disrupt IT with </tspan>
                        <tspan x="14.2721204" y="92.004705">Micro Services</tspan>
                    </text>
                    <path d="M316.00663,67.0686456 L316.00663,65.3061224 L316.00663,65.1298701 C316.00663,47.6808905 301.908044,33.580705 284.461045,33.580705 L284.284812,33.580705 C269.305065,33.580705 256.616338,43.9795918 253.444157,58.2560297 C243.222682,58.961039 235.115996,67.5974026 235.115996,78.1725417 L235.115996,78.877551 C235.115996,89.8051948 244.103844,98.7940631 255.030248,98.7940631 L268.600136,98.7940631 L268.600136,95.2690167 L255.030248,95.2690167 C246.042399,95.2690167 238.640642,87.8664193 238.640642,78.877551 L238.640642,78.1725417 C238.640642,69.1836735 246.042399,61.7810761 255.030248,61.7810761 L256.440106,61.7810761 L256.616338,60.3710575 C258.907359,46.9758813 270.538692,37.1057514 284.284812,37.1057514 L284.461045,37.1057514 C299.969489,37.1057514 312.481983,49.619666 312.481983,65.1298701 L312.481983,65.3061224 C312.481983,66.3636364 312.481983,67.4211503 312.305751,68.4786642 L312.129519,70.4174397 L314.773003,70.4174397 C321.293599,70.4174397 326.756801,75.7050093 326.756801,82.4025974 L326.756801,83.283859 C326.756801,89.8051948 321.469831,95.2690167 314.773003,95.2690167 L300.145721,95.2690167 L300.145721,98.7940631 L314.596771,98.7940631 C323.055922,98.7940631 330.105215,91.9202226 330.105215,83.283859 L330.105215,82.4025974 C330.105215,74.471243 323.937084,67.7736549 316.00663,67.0686456 L316.00663,67.0686456 Z M285.870903,76.2337662 C285.694671,76.0575139 285.342206,75.8812616 285.165974,75.8812616 C284.461045,75.528757 283.579883,75.528757 283.051186,76.0575139 L272.477247,86.4564007 C271.772318,87.16141 271.772318,88.2189239 272.477247,88.9239332 C272.829712,89.2764378 273.358409,89.4526902 273.710873,89.4526902 C274.23957,89.4526902 274.592035,89.2764378 274.944499,88.9239332 L282.522489,81.5213358 L282.522489,114.656772 C282.522489,115.714286 283.227418,116.419295 284.284812,116.419295 C285.342206,116.419295 286.047136,115.714286 286.047136,114.656772 L286.047136,81.5213358 L293.625125,89.2764378 C293.97759,89.6289425 294.506287,89.8051948 294.858751,89.8051948 C295.387448,89.8051948 295.739913,89.6289425 296.092378,89.2764378 C296.797307,88.5714286 296.797307,87.5139147 296.092378,86.8089054 L285.870903,76.2337662 L285.870903,76.2337662 Z" id="Shape" fill="#000000" sketch:type="MSShapeGroup"></path>
                </g>
                <g id="Oval-32-Copy-+-Reduce-the-cost-of-e-+-Graduater" transform="translate(405.953927, 0.000000)">
                    <g id="Oval-32-Copy-+-Graduater" sketch:type="MSShapeGroup">
                        <ellipse id="Oval-32-Copy" stroke="#193441" stroke-width="3" fill="#91AA9D" cx="75.5497382" cy="75" rx="75.5497382" ry="75"></ellipse>
                        <g id="Graduater" transform="translate(28.205236, 40.000000)" fill="#000000">
                            <path d="M95.6963351,24.1666667 L47.8481675,0 L0,24.1666667 L23.504363,38 L23.504363,61.5 C23.504363,66.3333333 26.6942408,70 31.0593368,70 L64.4691099,70 C68.8342059,70 72.0240838,66.5 72.0240838,61.5 L72.0240838,38 L82.0973822,32 L82.0973822,48 L85.4551483,48 L85.4551483,30.1666667 L95.6963351,24.1666667 L95.6963351,24.1666667 Z M47.8481675,3.83333333 L88.6450262,24.5 L47.8481675,48.6666667 L7.0513089,24.5 L47.8481675,3.83333333 L47.8481675,3.83333333 Z M68.8342059,61.5 C68.8342059,64 67.4910995,66.5 64.6369983,66.5 L31.2272251,66.5 C28.2052356,66.5 27.0300175,64 27.0300175,61.5 L27.0300175,40 L48.0160558,52.3333333 L69.0020942,40 L69.0020942,61.5 L68.8342059,61.5 Z" id="Shape"></path>
                        </g>
                    </g>
                    <text id="Reduce-the-cost-of-e" sketch:type="MSTextLayer" font-family="Exo 2.0" font-size="24" font-weight="420" fill="#113958">
                        <tspan x="179.304712" y="32">Reduce the cost of </tspan>
                        <tspan x="179.304712" y="61">education</tspan>
                    </text>
                </g>
                <g id="Oval-32-Copy-2-+-MarTech-and-analytic-+-Equalizer" transform="translate(607.419895, 147.000000)">
                    <ellipse id="Oval-32-Copy-2" stroke="#193441" stroke-width="3" fill="#D1DBBD" sketch:type="MSShapeGroup" cx="75.5497382" cy="75" rx="75.5497382" ry="75"></ellipse>
                    <text id="MarTech-and--analyti" sketch:type="MSTextLayer" font-family="Exo 2.0" font-size="24" font-weight="420" fill="#113958">
                        <tspan x="173.338972" y="62.851295">MarTech and  </tspan>
                        <tspan x="173.338972" y="91.851295">analytics</tspan>
                    </text>
                    <g id="Equalizer" transform="translate(46.075267, 36.504705)" fill="#000000" sketch:type="MSShapeGroup">
                        <path d="M7.3686178,16.4365385 L7.3686178,1.48076923 C7.3686178,0.592307692 6.77912838,0 5.89489424,0 C5.0106601,0 4.42117068,0.592307692 4.42117068,1.48076923 L4.42117068,16.4365385 C1.91584063,17.0288462 0,19.25 0,22.0634615 L0,22.3596154 C0,25.025 1.91584063,27.3942308 4.42117068,27.9865385 L4.42117068,75.5192308 C4.42117068,76.4076923 5.0106601,77 5.89489424,77 C6.77912838,77 7.3686178,76.4076923 7.3686178,75.5192308 L7.3686178,27.9865385 C9.87394785,27.3942308 11.7897885,25.1730769 11.7897885,22.3596154 L11.7897885,22.0634615 C11.7897885,19.25 9.87394785,17.0288462 7.3686178,16.4365385 L7.3686178,16.4365385 Z M8.84234136,22.3596154 C8.84234136,23.8403846 7.66336251,25.1730769 6.0422666,25.1730769 L5.74752188,25.1730769 C4.27379832,25.1730769 2.94744712,23.9884615 2.94744712,22.3596154 L2.94744712,22.0634615 C2.94744712,20.5826923 4.12642597,19.25 5.74752188,19.25 L6.0422666,19.25 C7.51599016,19.25 8.84234136,20.4346154 8.84234136,22.0634615 L8.84234136,22.3596154 L8.84234136,22.3596154 Z M30.9481948,31.2442308 L30.9481948,1.48076923 C30.9481948,0.592307692 30.3587053,0 29.4744712,0 C28.5902371,0 28.0007476,0.592307692 28.0007476,1.48076923 L28.0007476,31.2442308 C25.4954176,31.8365385 23.579577,34.0576923 23.579577,36.8711538 L23.579577,37.1673077 C23.579577,39.8326923 25.4954176,42.2019231 28.0007476,42.7942308 L28.0007476,75.5192308 C28.0007476,76.4076923 28.5902371,77 29.4744712,77 C30.3587053,77 30.9481948,76.4076923 30.9481948,75.5192308 L30.9481948,42.7942308 C33.4535248,42.2019231 35.3693654,39.9807692 35.3693654,37.1673077 L35.3693654,36.8711538 C35.3693654,34.0576923 33.4535248,31.8365385 30.9481948,31.2442308 L30.9481948,31.2442308 Z M32.4219183,37.1673077 C32.4219183,38.6480769 31.2429395,39.9807692 29.6218436,39.9807692 L29.3270988,39.9807692 C27.8533753,39.9807692 26.5270241,38.7961538 26.5270241,37.1673077 L26.5270241,36.8711538 C26.5270241,35.3903846 27.7060029,34.0576923 29.3270988,34.0576923 L29.6218436,34.0576923 C31.0955671,34.0576923 32.4219183,35.2423077 32.4219183,36.8711538 L32.4219183,37.1673077 L32.4219183,37.1673077 Z M54.5277717,46.0519231 L54.5277717,1.48076923 C54.5277717,0.592307692 53.9382823,0 53.0540482,0 C52.169814,0 51.5803246,0.592307692 51.5803246,1.48076923 L51.5803246,46.0519231 C49.0749946,46.6442308 47.1591539,48.8653846 47.1591539,51.6788462 L47.1591539,51.975 C47.1591539,54.6403846 49.0749946,57.0096154 51.5803246,57.6019231 L51.5803246,75.5192308 C51.5803246,76.4076923 52.169814,77 53.0540482,77 C53.9382823,77 54.5277717,76.4076923 54.5277717,75.5192308 L54.5277717,57.6019231 C57.0331018,57.0096154 58.9489424,54.7884615 58.9489424,51.975 L58.9489424,51.6788462 C58.9489424,48.8653846 57.0331018,46.6442308 54.5277717,46.0519231 L54.5277717,46.0519231 Z M56.0014953,51.975 C56.0014953,53.4557692 54.8225164,54.7884615 53.2014205,54.7884615 L52.9066758,54.7884615 C51.4329523,54.7884615 50.106601,53.6038462 50.106601,51.975 L50.106601,51.6788462 C50.106601,50.1980769 51.2855799,48.8653846 52.9066758,48.8653846 L53.2014205,48.8653846 C54.6751441,48.8653846 56.0014953,50.05 56.0014953,51.6788462 L56.0014953,51.975 L56.0014953,51.975 Z" id="Shape"></path>
                    </g>
                </g>
                <g id="Oval-32-Copy-4-+--B2B-SAAS-+-B2B" transform="translate(134.982199, 344.000000)">
                    <ellipse id="Oval-32-Copy-4" stroke="#193441" stroke-width="3" fill="#CFC291" sketch:type="MSShapeGroup" cx="230.678534" cy="75" rx="75.5497382" ry="75"></ellipse>
                    <text id="-B2B-SAAS" sketch:type="MSTextLayer" font-family="Exo 2.0" font-size="24" font-weight="420" fill="#113958">
                        <tspan x="0.564986804" y="84.72"> B2B SAAS</tspan>
                        <tspan x="0.564986804" y="113.72">Services</tspan>
                    </text>
                    <g id="B2B" transform="translate(188.855273, 38.848000)" fill="#000000" sketch:type="MSShapeGroup">
                        <path d="M75.9014729,0 L7.74504826,0 C3.40782123,0 0,3.38139774 0,7.68499487 L0,56.8689621 C0,61.1725592 3.40782123,64.5539569 7.74504826,64.5539569 L75.9014729,64.5539569 C80.2387,64.5539569 83.6465212,61.1725592 83.6465212,56.8689621 L83.6465212,7.68499487 C83.6465212,3.38139774 80.2387,0 75.9014729,0 L75.9014729,0 Z M80.5485019,56.8689621 C80.5485019,59.4818603 78.5347893,61.479959 75.9014729,61.479959 L7.74504826,61.479959 C5.11173185,61.479959 3.0980193,59.4818603 3.0980193,56.8689621 L3.0980193,7.68499487 C3.0980193,5.07209662 5.11173185,3.07399795 7.74504826,3.07399795 L75.9014729,3.07399795 C78.5347893,3.07399795 80.5485019,5.07209662 80.5485019,7.68499487 L80.5485019,56.8689621 L80.5485019,56.8689621 Z M55.7643475,73.7360287 L48.0192992,73.7360287 L48.0192992,66.0510338 C48.0192992,65.1288345 47.3996953,64.5140349 46.4702895,64.5140349 C45.5408838,64.5140349 44.9212799,65.1288345 44.9212799,66.0510338 L44.9212799,73.7360287 L38.7252413,73.7360287 L38.7252413,66.0510338 C38.7252413,65.1288345 38.1056374,64.5140349 37.1762316,64.5140349 C36.2468258,64.5140349 35.627222,65.1288345 35.627222,66.0510338 L35.627222,73.7360287 L29.4311834,73.7360287 C28.5017776,73.7360287 27.8821737,74.3508283 27.8821737,75.2730277 C27.8821737,76.1952271 28.5017776,76.8100267 29.4311834,76.8100267 L55.7643475,76.8100267 C56.6937532,76.8100267 57.3133571,76.1952271 57.3133571,75.2730277 C57.3133571,74.3508283 56.6937532,73.7360287 55.7643475,73.7360287 L55.7643475,73.7360287 Z" id="Shape"></path>
                        <path d="M56.3568436,14.5316267 L56.3568436,16.6075733 L63.3622398,16.6075733 L47.8876334,31.761984 L35.3406552,20.551872 L14.6381412,32.384768 L15.6837227,34.1493227 L35.0269807,23.1468053 L47.8876334,34.6683093 L64.7214958,18.060736 L64.7214958,24.91136 L66.8126588,24.91136 L66.8126588,14.5316267 L56.3568436,14.5316267 L56.3568436,14.5316267 Z" id="Path"></path>
                        <path d="M23.0027933,36.9518507 L23.0027933,50.8606933 L60.6437279,50.8606933 L60.6437279,32.1771733 L47.8876334,42.2455147 L34.2950737,30.9316053 L23.0027933,36.9518507 Z M25.0939564,48.7847467 L25.0939564,38.0936213 L34.0859574,33.4227413 L47.8876334,44.9442453 L58.5525648,36.5366613 L58.5525648,48.7847467 L25.0939564,48.7847467 Z" id="Path"></path>
                    </g>
                </g>
            </g>
        </g>
    </g>
</svg>