<?xml version="1.0" encoding="UTF-8" standalone="no"?>
<svg width="137px" height="25px" viewBox="0 0 137 25" version="1.1" xmlns="http://www.w3.org/2000/svg" xmlns:xlink="http://www.w3.org/1999/xlink" xmlns:sketch="http://www.bohemiancoding.com/sketch/ns">
    <!-- Generator: Sketch 3.3.2 (12043) - http://www.bohemiancoding.com/sketch -->
    <title>Logo SteamFab</title>
    <desc>Created with Sketch.</desc>
    <defs></defs>
    <g id="Page-1" stroke="none" stroke-width="1" fill="none" fill-rule="evenodd" sketch:type="MSPage">
        <g id="Logo-Fab" sketch:type="MSArtboardGroup" transform="translate(-27.000000, -77.000000)" fill="#FFFFFF">
            <g id="Logo-SteamFab" sketch:type="MSLayerGroup" transform="translate(27.000000, 77.000000)">
                <path d="M136.526225,15.9689922 C136.427522,15.503876 136.269597,15.0775194 136.07219,14.7093023 C135.874784,14.3410853 135.637896,14.0116279 135.361527,13.7015504 C135.085159,13.3914729 134.710086,13.1782946 134.275793,13.0232558 C133.841499,12.8682171 133.347983,12.7906977 132.795245,12.7906977 C132.242507,12.7906977 131.531844,12.8682171 130.663256,13.0426357 C129.794669,13.1976744 129.024784,13.4108527 128.353602,13.6821705 L128.353602,7.36434109 L127.129683,7.36434109 L127.129683,24.7093023 L128.037752,24.7093023 L128.393084,23.4108527 C128.748415,23.6821705 129.399856,23.9922481 130.347406,24.3410853 C131.294957,24.6899225 132.104323,24.8449612 132.755764,24.8449612 C133.407205,24.8449612 133.979683,24.7286822 134.473199,24.4767442 C134.946974,24.2248062 135.341787,23.9147287 135.637896,23.5465116 C135.934006,23.1589147 136.170893,22.7131783 136.348559,22.1705426 C136.526225,21.627907 136.664409,21.1046512 136.723631,20.5813953 C136.782853,20.0581395 136.822334,19.379845 136.822334,18.5658915 C136.822334,17.7131783 136.723631,16.8604651 136.526225,15.9689922 L136.526225,15.9689922 Z M134.80879,22.3837209 C134.315274,23.1782946 133.644092,23.5658915 132.814986,23.5658915 C131.531844,23.5658915 130.071037,23.1976744 128.412824,22.4806202 L128.412824,14.6317829 C129.992075,14.2248062 131.452882,14.0310078 132.814986,14.0310078 C133.663833,14.0310078 134.315274,14.3410853 134.769308,14.9806202 C135.302305,15.6782946 135.558934,16.9767442 135.558934,18.875969 C135.539193,20.4263566 135.302305,21.6085271 134.80879,22.3837209 Z M120.536311,12.751938 C118.443804,12.751938 116.568444,12.9651163 114.89049,13.4108527 L114.89049,14.3217054 C117.279107,14.0891473 119.095245,13.9728682 120.338905,13.9728682 C121.878674,13.9728682 122.648559,14.7093023 122.648559,16.1627907 L122.648559,17.6356589 L117.496254,17.6356589 C116.884294,17.6356589 116.351297,17.751938 115.897262,17.9844961 C114.969452,18.4689922 114.495677,19.3410853 114.495677,20.5620155 L114.495677,21.9186047 C114.495677,22.8294574 114.772046,23.5465116 115.344524,24.0697674 C115.917003,24.5930233 116.607925,24.8449612 117.417291,24.8449612 C118.226657,24.8449612 119.154467,24.6705426 120.18098,24.3023256 C120.615274,24.1472868 121.010086,24.0116279 121.385159,23.8565891 C121.760231,23.7015504 122.05634,23.5658915 122.273487,23.4689922 C122.490634,23.372093 122.609078,23.3139535 122.628818,23.3139535 L122.964409,24.7286822 L123.91196,24.7286822 L123.91196,16.1821705 C123.91196,15.0387597 123.59611,14.1860465 122.964409,13.624031 C122.332709,13.0232558 121.523343,12.751938 120.536311,12.751938 Z M122.648559,22.3837209 L122.293228,22.5193798 C121.74049,22.7131783 121.010086,22.9263566 120.082277,23.1589147 C119.647983,23.2751938 119.193948,23.372093 118.720173,23.4496124 C118.246398,23.5271318 117.792363,23.5658915 117.37781,23.5658915 C116.963256,23.5658915 116.588184,23.4302326 116.252594,23.1395349 C115.936744,22.8682171 115.778818,22.4031008 115.778818,21.7829457 L115.778818,20.6395349 C115.778818,19.5348837 116.351297,18.9534884 117.496254,18.875969 L122.648559,18.5658915 L122.648559,22.3837209 L122.648559,22.3837209 Z M105.947983,8.52713178 C105.217579,8.52713178 104.585879,8.75968992 104.072622,9.20542636 C103.559366,9.65116279 103.302738,10.3875969 103.302738,11.3953488 L103.302738,24.6899225 L104.585879,24.6899225 L104.585879,17.3255814 L112.186023,17.1511628 L112.186023,16.1821705 L104.585879,16.0077519 L104.585879,11.3953488 C104.585879,10.872093 104.704323,10.4651163 104.92147,10.1937984 C105.138617,9.92248062 105.55317,9.78682171 106.145389,9.78682171 L113.094092,9.78682171 L113.094092,8.8372093 L106.145389,8.52713178 L105.947983,8.52713178 Z M95.3670029,12.8100775 C93.7877522,12.8100775 92.3072046,13.3333333 90.885879,14.3992248 C90.6292507,13.8953488 90.234438,13.5077519 89.6619597,13.2364341 C89.1092219,12.9651163 88.5367435,12.8100775 87.9247839,12.8100775 C87.3325648,12.8100775 86.8785303,12.8488372 86.6021614,12.9263566 C86.4244957,12.9651163 86.2665706,13.003876 86.1481268,13.0232558 C86.029683,13.0426357 85.8717579,13.1007752 85.6940922,13.1782946 C85.5164265,13.255814 85.3782421,13.3139535 85.3190202,13.3527132 C85.2400576,13.3914729 85.1018732,13.4689922 84.9044669,13.5658915 C84.7070605,13.6821705 84.5886167,13.7403101 84.5491354,13.7790698 C84.5096542,13.8178295 84.3714697,13.8953488 84.1543228,14.0310078 C83.9371758,14.1666667 83.818732,14.2635659 83.7792507,14.2829457 L83.1870317,12.9651163 L81.1537464,12.9651163 L81.1537464,24.6899225 L83.7595101,24.6899225 L83.7595101,16.0852713 C84.4306916,15.6782946 85.00317,15.3875969 85.437464,15.2325581 C85.8717579,15.0775194 86.3850144,14.9806202 86.9574928,14.9806202 C87.5299712,14.9806202 87.9642651,15.1356589 88.2603746,15.4651163 C88.5564841,15.7751938 88.6946686,16.2209302 88.6946686,16.8023256 L88.6946686,24.7093023 L91.3004323,24.7093023 L91.3004323,16.8023256 L91.3004323,16.0271318 C91.9716138,15.5232558 92.7020173,15.2131783 93.4521614,15.0968992 C93.8272334,15.0193798 94.2615274,14.9806202 94.7550432,14.9806202 C95.2485591,14.9806202 95.6236311,15.1356589 95.9197406,15.4651163 C96.1961095,15.7751938 96.3540346,16.2209302 96.3540346,16.8023256 L96.3540346,24.7093023 L98.9597983,24.7093023 L98.9597983,16.8217054 C98.9597983,15.620155 98.6439481,14.6511628 98.0319885,13.9147287 C97.4595101,13.1782946 96.5514409,12.8100775 95.3670029,12.8100775 Z M74.3037464,12.751938 C71.9743516,12.751938 70.0989914,13.003876 68.6579251,13.4883721 L68.6579251,15.1550388 C71.0662824,15 72.8429395,14.9031008 73.948415,14.9031008 C74.5208934,14.9031008 74.9354467,15.0193798 75.2118156,15.2325581 C75.4881844,15.4457364 75.6263689,15.872093 75.6263689,16.4728682 C75.6461095,16.4728682 75.6461095,16.5503876 75.6461095,16.7248062 C75.6461095,16.8992248 75.6461095,17.1511628 75.6263689,17.4806202 L71.7572046,17.4806202 C70.5332853,17.4806202 69.6449568,17.7713178 69.092219,18.3527132 C68.5394813,18.9341085 68.2631124,19.6899225 68.2631124,20.6007752 L68.2631124,21.8023256 C68.2631124,22.6550388 68.5592219,23.372093 69.1317003,23.9728682 C69.7239193,24.5542636 70.5135447,24.8643411 71.5400576,24.8643411 C72.0927954,24.8643411 72.704755,24.748062 73.356196,24.5155039 C74.0076369,24.2829457 74.540634,24.0697674 74.9354467,23.8372093 C75.3302594,23.624031 75.5474063,23.4689922 75.6066282,23.372093 L76.1988473,24.7286822 L78.2321326,24.7286822 L78.2321326,16.3953488 C78.2518732,13.9534884 76.9292507,12.751938 74.3037464,12.751938 Z M75.6461095,21.6666667 L75.0933718,21.9186047 C74.7182997,22.0736434 74.2247839,22.248062 73.6325648,22.4031008 C73.0403458,22.5581395 72.54683,22.6550388 72.1322767,22.6550388 C71.7177233,22.6550388 71.4216138,22.5775194 71.2044669,22.4031008 C70.9873199,22.248062 70.8886167,21.9379845 70.8886167,21.4728682 L70.8886167,20.6976744 C70.8886167,19.9224806 71.2636888,19.496124 71.9940922,19.4186047 L75.6461095,19.1472868 L75.6461095,21.6666667 Z M66.506196,17.0930233 C66.506196,15.7751938 66.3087896,14.8449612 65.9337176,14.2829457 C65.7363112,13.9728682 65.5191643,13.7209302 65.2822767,13.5271318 C65.045389,13.3333333 64.7097983,13.1976744 64.3149856,13.1007752 C63.9004323,13.003876 63.5056196,12.9457364 63.1108069,12.9069767 C62.7159942,12.8682171 62.0842939,12.8682171 61.2354467,12.8682171 C60.3865994,12.8682171 59.6167147,12.9651163 58.9455331,13.1395349 C58.2743516,13.3333333 57.7018732,13.7209302 57.2478386,14.3023256 C56.6556196,15.0775194 56.3792507,16.5891473 56.3792507,18.7984496 C56.3792507,21.0077519 56.6556196,22.5775194 57.228098,23.4689922 C57.8005764,24.3604651 58.8270893,24.8062016 60.3273775,24.8062016 C63.051585,24.8062016 65.045389,24.5930233 66.2693084,24.1860465 L66.2693084,22.4031008 C65.2230548,22.5581395 64.0386167,22.6550388 62.7159942,22.6550388 C61.3933718,22.6550388 60.6037464,22.6162791 60.3273775,22.5581395 C60.0510086,22.5 59.814121,22.3643411 59.5969741,22.1899225 C59.2021614,21.8604651 59.004755,21.1046512 59.004755,19.9612403 L63.2489914,19.9612403 C65.4204611,19.9418605 66.506196,18.9922481 66.506196,17.0930233 Z M59.004755,17.9651163 C59.004755,17.4806202 59.0244957,17.0155039 59.0639769,16.5697674 C59.1034582,16.124031 59.2811239,15.7364341 59.5969741,15.3875969 C59.8338617,15.1162791 60.5445245,14.9806202 61.7289625,14.9806202 C62.6567723,14.9806202 63.2489914,15.0968992 63.485879,15.3294574 C63.7425072,15.5620155 63.860951,16.124031 63.860951,17.0155039 C63.860951,17.6550388 63.485879,17.9651163 62.7159942,17.9651163 L59.004755,17.9651163 L59.004755,17.9651163 Z M51.6612392,9.67054264 L49.5489914,9.67054264 L49.0554755,12.9457364 L47.0221902,13.5077519 L47.0221902,15.0581395 L49.0554755,15.0581395 L49.0554755,20.5232558 C49.0554755,23.3139535 50.0425072,24.7286822 51.99683,24.7286822 L54.4841499,24.7286822 L54.4841499,23.0620155 C54.3854467,23.0620155 53.8129683,22.9069767 52.7864553,22.5968992 C52.4113833,22.4806202 52.1350144,22.248062 51.9376081,21.9186047 C51.7402017,21.5891473 51.6612392,21.0077519 51.6612392,20.1937984 L51.6612392,15.0387597 L54.6223343,15.0387597 L54.6223343,12.9457364 L51.6612392,12.9457364 L51.6612392,9.67054264 Z M42.1659942,15.4457364 L39.3233429,15.4457364 C38.6126801,15.4457364 38.1191643,15.3294574 37.8230548,15.0968992 C37.5269452,14.8643411 37.3690202,14.3992248 37.3690202,13.6627907 L37.3690202,12.6162791 C37.3690202,11.8023256 37.5466859,11.2984496 37.9020173,11.0852713 C38.2573487,10.872093 38.7311239,10.7751938 39.3233429,10.7751938 C39.915562,10.7751938 40.9025937,10.7945736 42.3239193,10.8333333 C43.6860231,10.8914729 44.6927954,10.9496124 45.3244957,10.9883721 L45.3244957,8.95348837 C44.712536,8.79844961 43.8044669,8.6627907 42.6002882,8.54651163 C41.3961095,8.43023256 40.5670029,8.35271318 40.073487,8.35271318 L38.7903458,8.35271318 C38.4152738,8.35271318 37.9809798,8.41085271 37.4677233,8.54651163 C36.9544669,8.68217054 36.5004323,8.89534884 36.0661383,9.18604651 C35.1975504,9.80620155 34.7632565,10.8914729 34.7632565,12.4418605 L34.7632565,13.8565891 C34.7632565,14.6705426 34.8817003,15.3682171 35.1185879,15.9689922 C35.276513,16.375969 35.5134006,16.7054264 35.7897695,16.9767442 C36.0661383,17.248062 36.4806916,17.4806202 37.0136888,17.6744186 C37.5466859,17.8682171 38.1783862,17.9651163 38.9087896,17.9651163 L41.6724784,17.9651163 C42.2646974,17.9651163 42.6989914,18.120155 42.935879,18.4108527 C43.1727666,18.7209302 43.2912104,19.1472868 43.2912104,19.7093023 L43.2912104,20.8139535 C43.2912104,21.5116279 43.0148415,21.9767442 42.4621037,22.1899225 C42.1857349,22.2868217 41.9488473,22.3643411 41.7119597,22.3837209 C41.4948127,22.4224806 40.7644092,22.4224806 39.5602305,22.4224806 C39.4023055,22.4224806 37.4479827,22.4806202 35.1975504,22.2093023 C33.5788184,22.0155039 32.4930836,21.1434109 32.0193084,20.6782946 C27.7355908,16.1046512 27.1236311,10.620155 21.2211816,6.24031008 C18.0626801,3.89534884 15.6345821,3.37209302 12.8511527,3.37209302 L11.1731988,3.37209302 C9.63342939,3.37209302 9.63342939,3.39147287 9.63342939,3.39147287 C9.63342939,3.39147287 13.9566282,3.72093023 17.2730548,6.89922481 C20.7868876,10.2713178 23.2742075,17.0542636 26.4919308,20.2131783 C31.1507205,24.8062016 35.6713256,24.5930233 35.6713256,24.5930233 L41.0605187,24.8062016 L41.3368876,24.8062016 C42.3634006,24.8062016 43.2122478,24.6511628 43.90317,24.3604651 C45.2455331,23.7984496 45.8969741,22.5775194 45.8969741,20.7170543 L45.8969741,19.4767442 C45.8969741,18.8953488 45.8377522,18.372093 45.6995677,17.8875969 C45.2652738,16.2790698 44.0808357,15.4457364 42.1659942,15.4457364 Z" id="XMLID_49_" sketch:type="MSShapeGroup"></path>
                <path d="M2.50706052,0.0775193798 C4.67853026,0.0775193798 6.57363112,0.484496124 9.04121037,2.30620155 C13.8381844,5.85271318 14.1342939,10.3682171 17.904755,14.0116279 C20.5894813,16.6085271 24.162536,16.6472868 24.162536,16.6472868 L20.2933718,16.6085271 C20.2933718,16.6085271 16.7597983,16.7635659 13.1472622,13.1976744 C10.6402017,10.7364341 8.7056196,5.44573643 5.96167147,2.81007752 C3.37564841,0.310077519 1.77635684e-15,0.0775193798 1.77635684e-15,0.0775193798 C1.77635684e-15,0.0775193798 1.77635684e-15,0.0581395349 1.20417867,0.0581395349" id="XMLID_4_" sketch:type="MSShapeGroup"></path>
            </g>
        </g>
    </g>
</svg>